<?xml version="1.0" encoding="UTF-8" standalone="no"?>
<svg xmlns="http://www.w3.org/2000/svg" xmlns:svg="http://www.w3.org/2000/svg" xmlns:rdf="http://www.w3.org/1999/02/22-rdf-syntax-ns#" xmlns:cc="http://creativecommons.org/ns#" xmlns:dc="http://purl.org/dc/elements/1.1/" version="1.0" width="61.188" height="172.21899" id="svg2">
  <title id="title2983">Q9: Topmark, diamond</title>
  <metadata id="metadata10">
    <rdf:RDF>
      <cc:Work rdf:about="">
        <dc:format>image/svg+xml</dc:format>
        <dc:type rdf:resource="http://purl.org/dc/dcmitype/StillImage"/>
        <dc:title>Q9: Topmark, diamond</dc:title>
        <cc:license rdf:resource="http://creativecommons.org/publicdomain/zero/1.0/"/>
      </cc:Work>
      <cc:License rdf:about="http://creativecommons.org/publicdomain/zero/1.0/">
        <cc:permits rdf:resource="http://creativecommons.org/ns#Reproduction"/>
        <cc:permits rdf:resource="http://creativecommons.org/ns#Distribution"/>
        <cc:permits rdf:resource="http://creativecommons.org/ns#DerivativeWorks"/>
      </cc:License>
    </rdf:RDF>
  </metadata>
  <defs id="defs8"/>
  <path d="M 30.212891,44.082031 10.082031,64.212891 30.212891,84.34375 50.34375,64.212891 Z" id="path_fill_b2" style="display:inline;fill:#ffffff;fill-opacity:0"/>
  <path d="M 30.212891,48.359375 14.359375,64.212891 30.212891,80.066406 46.066406,64.212891 Z" id="path_fill_b12" style="display:inline;fill:#ffffff;fill-opacity:0"/>
  <path d="M 30.212891,44.082031 10.082031,64.212891 30.212891,84.34375 50.34375,64.212891 Z" id="path_fill_h12" style="fill:#ffffff"/>
  <path d="m 30.212891,44.082031 -20.13086,20.13086 H 50.34375 Z" id="path_fill_h6" style="fill:#d40000"/>
  <path d="M 30.212891,44.082031 10.082031,64.212891 30.212891,84.34375 50.34375,64.212891 Z" id="path_fill_v12" style="display:inline;fill:#ffffff;fill-opacity:0"/>
  <path d="M 30.212891,44.082031 10.082031,64.212891 30.212891,84.34375 40.27832,74.27832 V 54.147461 Z" id="path_fill_v8" style="display:inline;fill:#ffffff;fill-opacity:0"/>
  <path d="m 30.212891,44.082031 -20.13086,20.13086 20.13086,20.130859 z" id="path_fill_v6" style="display:inline;fill:#ffffff;fill-opacity:0"/>
  <path d="m 20.147461,54.147461 -10.06543,10.06543 10.06543,10.065429 z" id="path_fill_v4" style="display:inline;fill:#ffffff;fill-opacity:0"/>
  <path d="M 30.212891,44.082031 10.082031,64.212891 30.212891,84.34375 50.34375,64.212891 Z" id="path_fill_s12" style="display:inline;fill:#ffffff;fill-opacity:0"/>
  <path d="M 20.147461,54.147461 10.082031,64.212891 20.147461,74.27832 30.21289,64.213 40.27832,74.27832 50.34375,64.212891 40.27832,54.147461 30.21289,64.213 Z" id="path_fill_s6" style="display:inline;fill:#ffffff;fill-opacity:0"/>
  <path d="M 30.213,85.426 51.426,64.213 30.213,43 9,64.213 Z m 0,-2.828 L 11.828369,64.213 30.213,45.828 48.598,64.213 Z" id="path_stroke" style="display:inline;fill:#000000;fill-opacity:1"/>
</svg>
