<?xml version="1.0" encoding="UTF-8" standalone="no"?>
<!-- Created with Inkscape (http://www.inkscape.org/) -->

<svg
   version="1.1"
   width="96.000443"
   height="96.600471"
   id="svg2"
   sodipodi:docname="marina.svg"
   inkscape:version="1.4.2 (ebf0e940d0, 2025-05-08)"
   xmlns:inkscape="http://www.inkscape.org/namespaces/inkscape"
   xmlns:sodipodi="http://sodipodi.sourceforge.net/DTD/sodipodi-0.dtd"
   xmlns="http://www.w3.org/2000/svg"
   xmlns:svg="http://www.w3.org/2000/svg"
   xmlns:rdf="http://www.w3.org/1999/02/22-rdf-syntax-ns#"
   xmlns:cc="http://creativecommons.org/ns#"
   xmlns:dc="http://purl.org/dc/elements/1.1/">
  <sodipodi:namedview
     id="namedview1"
     pagecolor="#ffffff"
     bordercolor="#000000"
     borderopacity="0.25"
     inkscape:showpageshadow="2"
     inkscape:pageopacity="0.0"
     inkscape:pagecheckerboard="0"
     inkscape:deskcolor="#d1d1d1"
     inkscape:zoom="1"
     inkscape:cx="47.5"
     inkscape:cy="48"
     inkscape:window-width="1142"
     inkscape:window-height="749"
     inkscape:window-x="0"
     inkscape:window-y="0"
     inkscape:window-maximized="1"
     inkscape:current-layer="svg2" />
  <metadata
     id="metadata13">
    <rdf:RDF>
      <cc:Work
         rdf:about="">
        <dc:format>image/svg+xml</dc:format>
        <dc:type
           rdf:resource="http://purl.org/dc/dcmitype/StillImage" />
      </cc:Work>
    </rdf:RDF>
  </metadata>
  <defs
     id="defs11" />
  <path
     d="m 8.67906,75.78231 h 37.1694 L 47.043,7.35831 h 1.79688 l 0.29625,14.0064 14.6946,-7.014 -0.0848,6.0912 0.21113,6.081 0.7191,6.0384 1.4376,5.8989 2.12508,5.7057 2.63184,5.4804 3.02394,5.2875 3.62628,4.82562 3.70008,3.85062 -31.1862,6.081 v 6.0918 h 37.4646 l -4.0596,4.5264 -4.27104,4.27836 -4.62012,3.80778 -5.15916,3.12126 -5.5707,2.38164 -5.87826,1.65198 -6.0156,0.90072 -6.057,0.14948 -5.99382,-0.5895 -5.85648,-1.35156 -5.68806,-2.12346 -5.39118,-2.84148 -4.93698,-3.5283 -4.36542,-4.19358 -3.7959,-4.67526 -1.16136,-1.51392 z m 9.2922,-3.357 -0.38075,-6.1134 -0.0636,-6.0702 0.58113,-6.0168 1.42716,-5.8986 2.157,-5.7162 2.75844,-5.4801 3.2772,-5.14824 3.83772,-4.67616 4.43976,-4.03272 4.9056,-3.5181 3.12936,-2.05908 -3.23538,5.13714 -2.79072,5.36268 -2.07192,5.71584 -1.34322,5.96358 -0.67638,6.0816 0.0311,6.081 0.80334,6.018 1.19454,5.55564 -17.9802,8.8146 M 6.88224,72.7472 4.2504,67.2674 2.0292,61.65728 0.60294,55.77008 0,49.66748 l 0.23264,-6.1566 1.02522,-6.0702 1.7661,-5.8986 2.4843,-5.62062 3.15,-5.24406 3.78456,-4.80468 4.33434,-4.27896 4.8522,-3.67866 5.28516,-3.06702 5.6352,-2.3385 5.92992,-1.61874 6.09,-0.82614 6.1638,-0.0647 6.1212,0.70752 5.9619,1.46958 5.6979,2.23068 5.307,3.00324 4.85244,3.68916 4.34478,4.3221 3.7959,4.85886 3.23448,5.3091 2.57928,5.673 1.88166,5.95278 1.16256,6.1026 0.3279,6.1344 -0.54919,6.018 -1.44894,5.84466 -2.14596,5.673 -2.484,5.58738 -0.0741,0.17254 h -4.78884 l 2.69604,-5.4915 2.32548,-5.59812 1.54392,-5.83476 0.64446,-6.081 -0.29565,-6.156 -1.12044,-6.1026 -1.93482,-5.8779 -2.6841,-5.56578 -3.39396,-5.1048 -4.03812,-4.60068 -4.64196,-3.9468 L 68.4517,9.12874 62.85892,6.63982 57.00274,4.9447 l -6.0672,-0.83604 -6.1218,0.0428 -6.0462,0.93336 -5.87826,1.7802 -5.571,2.5524 -5.13798,3.31386 -4.61922,4.00038 -3.98586,4.62192 -3.30882,5.13744 -2.64258,5.57718 -1.93482,5.877 -1.14048,6.102 -0.31745,6.1566 0.60234,6.0594 1.59648,5.82342 2.38938,5.57688 2.5587,5.08356 -4.49472,3e-4 z"
     id="path5"
     style="fill:#a30075" />
</svg>
