<?xml version="1.0" encoding="UTF-8" standalone="no"?>
<svg
   version="1.0"
   width="28.34375"
   height="50.15625"
   id="svg2"
   xmlns="http://www.w3.org/2000/svg"
   xmlns:svg="http://www.w3.org/2000/svg"
   xmlns:rdf="http://www.w3.org/1999/02/22-rdf-syntax-ns#"
   xmlns:cc="http://creativecommons.org/ns#"
   xmlns:dc="http://purl.org/dc/elements/1.1/">
  <title
     id="title2986">Q9: Topmark, cylinder</title>
  <metadata
     id="metadata11">
    <rdf:RDF>
      <cc:Work
         rdf:about="">
        <dc:format>image/svg+xml</dc:format>
        <dc:type
           rdf:resource="http://purl.org/dc/dcmitype/StillImage" />
        <dc:title>Q9: Topmark, cylinder</dc:title>
        <cc:license
           rdf:resource="http://creativecommons.org/publicdomain/zero/1.0/" />
      </cc:Work>
      <cc:Work
         rdf:about="">
        <dc:format>image/svg+xml</dc:format>
        <dc:type
           rdf:resource="http://purl.org/dc/dcmitype/StillImage" />
      </cc:Work>
      <cc:License
         rdf:about="http://creativecommons.org/publicdomain/zero/1.0/">
        <cc:permits
           rdf:resource="http://creativecommons.org/ns#Reproduction" />
        <cc:permits
           rdf:resource="http://creativecommons.org/ns#Distribution" />
        <cc:permits
           rdf:resource="http://creativecommons.org/ns#DerivativeWorks" />
      </cc:License>
    </rdf:RDF>
  </metadata>
  <defs
     id="defs9" />
  <path
     style="fill:#ffffff;stroke:none;stroke-width:1px;stroke-linecap:butt;stroke-linejoin:miter;stroke-opacity:1;fill-opacity:0"
     d="M 25.739393,32.974 26.260051,2.4637 3.0386908,2.359568 2.5180328,32.974 Z"
     id="path_fill_v12" />
  <path
     style="fill:#ffffff;fill-opacity:0;stroke:none;stroke-width:1px;stroke-linecap:butt;stroke-linejoin:miter;stroke-opacity:1"
     d="M 17.194722,32.974 17.71538,2.4637 3.038658,2.359568 2.518,32.974 Z"
     id="path_fill_v8" />
  <path
     style="fill:#ffffff;fill-opacity:0;stroke:none;stroke-width:0.707107px;stroke-linecap:butt;stroke-linejoin:miter;stroke-opacity:1"
     d="M 14.128671,32.974 14.389,2.4637 2.778329,2.359568 2.518,32.974 Z"
     id="path_fill_v6" />
  <path
     style="fill:#ffffff;fill-opacity:0;stroke:none;stroke-width:1px;stroke-linecap:butt;stroke-linejoin:miter;stroke-opacity:1"
     d="M 11.184722,32.974 11.70538,2.4637 3.038658,2.359568 2.518,32.974 Z"
     id="path_fill_v4" />
  <path
     style="fill:#00d400"
     d="M 25.739393,32.974 26.260051,2.4637 3.0386908,2.359568 2.5180328,32.974 Z"
     id="path_fill_h12" />
  <path
     style="fill:#d40000"
     d="M 25.739393,21.594 26.260051,2.4637 3.0386908,2.359568 2.5180328,21.594 Z"
     id="path_fill_h8" />
  <path
     style="fill:#ffffff;stroke:none;stroke-width:0.707101px;stroke-linecap:butt;stroke-linejoin:miter;stroke-opacity:1;fill-opacity:0"
     d="M 25.739393,17.666655 26.260051,2.4116331 3.0386908,2.359568 2.5180328,17.666655 Z"
     id="path_fill_h6" />
  <path
     style="fill:#00d400"
     d="M 25.739393,13.094 26.260051,2.4637 3.0386908,2.359568 2.5180328,13.094 Z"
     id="path_fill_h4" />
  <path
     d="M 5.8125,29.844 L 5.8125,64.9065 L 17.8125,64.9065 L 17.8125,80.00025 L 22.0625,80.00025 L 22.0625,64.9065 L 34.15625,64.9065 L 34.15625,29.844 L 5.8125,29.844 L 5.8125,29.844 z M 29.15625,34.37525 L 29.21875,59.87525 L 10.9375,59.93775 L 11.125,34.43775 L 29.15625,34.37525 z "
     id="path_stroke"
     transform="translate(-5.8125,-29.844)" />
</svg>
