<?xml version="1.0" encoding="UTF-8" standalone="no"?>
<svg
   version="1.0"
   width="35.28125"
   height="81.454628"
   id="svg2"
   xmlns="http://www.w3.org/2000/svg"
   xmlns:svg="http://www.w3.org/2000/svg"
   xmlns:rdf="http://www.w3.org/1999/02/22-rdf-syntax-ns#"
   xmlns:cc="http://creativecommons.org/ns#"
   xmlns:dc="http://purl.org/dc/elements/1.1/">
  <title
     id="title2982">Q9: Topmark, east mark</title>
  <metadata
     id="metadata9">
    <rdf:RDF>
      <cc:Work
         rdf:about="">
        <dc:format>image/svg+xml</dc:format>
        <dc:type
           rdf:resource="http://purl.org/dc/dcmitype/StillImage" />
        <dc:title>Q9: Topmark, east mark</dc:title>
        <cc:license
           rdf:resource="http://creativecommons.org/licenses/publicdomain/" />
      </cc:Work>
      <cc:License
         rdf:about="http://creativecommons.org/licenses/publicdomain/">
        <cc:permits
           rdf:resource="http://creativecommons.org/ns#Reproduction" />
        <cc:permits
           rdf:resource="http://creativecommons.org/ns#Distribution" />
        <cc:permits
           rdf:resource="http://creativecommons.org/ns#DerivativeWorks" />
      </cc:License>
    </rdf:RDF>
  </metadata>
  <defs
     id="defs7" />
  <path
     id="path_fill_h12"
     style="fill:#000407"
     d="M 17.641603,2.9960938 33.147509,34.669922 2.1064942,34.533203 Z M 17.626953,69.741914 2.1210932,38.068086 33.162109,38.204805 Z" />
  <path
     d="M 17.625,0 0,36 c 5.1249433,0.0031 10.427008,-0.06475 14.84375,-0.09375 V 36.9375 H 0 c 0,0 11.39469,22.78207 16.25,32.875 -0.4375,0 -0.1685,1.27e-4 -0.606,1.27e-4 v 11.642 h 3.999939 v -11.642 c -0.34375,0 -0.143939,-1.27e-4 -0.487689,-1.27e-4 l 16.125,-32.875 h -15.1875 v -1.03125 c 5.331803,-0.0259 10.393877,-0.0625 15.1875,-0.0625 z m 0.019,6.454627 13,26.5 h -26 z M 4.644,39.955 h 26 l -13,26.5 z"
     id="path_stroke"
     style="display:inline" />
</svg>
