<?xml version="1.0" encoding="UTF-8" standalone="no"?>
<svg
   version="1.0"
   width="41.1875"
   height="86.21875"
   id="svg2"
   inkscape:version="1.4.2 (ebf0e940d0, 2025-05-08)"
   sodipodi:docname="base.svg"
   sodipodi:version="0.32"
   inkscape:output_extension="org.inkscape.output.svg.inkscape"
   sodipodi:modified="true"
   xmlns:inkscape="http://www.inkscape.org/namespaces/inkscape"
   xmlns:sodipodi="http://sodipodi.sourceforge.net/DTD/sodipodi-0.dtd"
   xmlns="http://www.w3.org/2000/svg"
   xmlns:svg="http://www.w3.org/2000/svg"
   xmlns:rdf="http://www.w3.org/1999/02/22-rdf-syntax-ns#"
   xmlns:cc="http://creativecommons.org/ns#"
   xmlns:dc="http://purl.org/dc/elements/1.1/">
  <title
     id="title2983">Q81: Beacon</title>
  <metadata
     id="metadata3080">
    <rdf:RDF>
      <cc:Work
         rdf:about="">
        <dc:format>image/svg+xml</dc:format>
        <dc:type
           rdf:resource="http://purl.org/dc/dcmitype/StillImage" />
        <cc:license
           rdf:resource="http://creativecommons.org/licenses/publicdomain/" />
        <dc:title>Q81: Beacon</dc:title>
      </cc:Work>
      <cc:Work
         rdf:about="">
        <dc:format>image/svg+xml</dc:format>
        <dc:type
           rdf:resource="http://purl.org/dc/dcmitype/StillImage" />
      </cc:Work>
      <cc:License
         rdf:about="http://creativecommons.org/licenses/publicdomain/">
        <cc:permits
           rdf:resource="http://creativecommons.org/ns#Reproduction" />
        <cc:permits
           rdf:resource="http://creativecommons.org/ns#Distribution" />
        <cc:permits
           rdf:resource="http://creativecommons.org/ns#DerivativeWorks" />
      </cc:License>
    </rdf:RDF>
  </metadata>
  <sodipodi:namedview
     pagecolor="#ffffff"
     bordercolor="#666666"
     borderopacity="1"
     objecttolerance="10"
     gridtolerance="10"
     guidetolerance="10"
     inkscape:pageopacity="0"
     inkscape:pageshadow="2"
     inkscape:window-width="1479"
     inkscape:window-height="1016"
     id="namedview3078"
     showgrid="false"
     inkscape:zoom="6.9209789"
     inkscape:cx="12.425988"
     inkscape:cy="40.384461"
     inkscape:window-x="0"
     inkscape:window-y="0"
     inkscape:window-maximized="1"
     inkscape:current-layer="svg2"
     inkscape:showpageshadow="2"
     inkscape:pagecheckerboard="0"
     inkscape:deskcolor="#d1d1d1" />
  <defs
     id="defs4" />
  <path
     id="path_fill_v12"
     style="fill:#ffffff;fill-opacity:0"
     d="M 13.049896,0.96220398 H 28.385247 V 64.689106 H 13.049896 Z"
     inkscape:label="path_fill_v12" />
  <path
     id="path_fill_v6"
     style="fill:#ffffff;fill-opacity:0;stroke-width:1.00003"
     d="m 20.718,0.96220398 h 7.668 V 64.689106 h -7.668 z"
     inkscape:label="path_fill_v6" />
  <path
     id="path_fill_h12"
     style="fill:#ffffff;fill-opacity:0"
     d="M 13.049896,0.96220398 H 28.385247 V 64.689106 H 13.049896 Z"
     inkscape:label="path_fill_h12" />
  <path
     id="path_fill_h9"
     style="fill:#ffffff;fill-opacity:0"
     d="M 13.049896,0.963 H 28.385247 V 48.759 H 13.049896 Z"
     inkscape:label="path_fill_h9" />
  <path
     id="path_fill_h8"
     style="fill:#ffffff;fill-opacity:0"
     d="m 13.049896,0.963 h 15.335 v 42.484 h -15.335 z"
     inkscape:label="path_fill_h8" />
  <path
     id="path_fill_h6"
     style="fill:#ffffff;fill-opacity:0"
     d="M 13.05,0.963 H 28.385351 V 32.826 H 13.05 Z"
     inkscape:label="path_fill_h6" />
  <path
     id="path_fill_h4"
     style="fill:#ffffff;fill-opacity:0"
     d="M 13.049896,0.963 H 28.385247 V 22.205 H 13.049896 Z"
     inkscape:label="path_fill_h4" />
  <path
     id="path_fill_h3"
     style="fill:#ffffff;fill-opacity:0"
     d="M 13.05,0.963 H 28.385351 V 16.894 H 13.05 Z"
     inkscape:label="path_fill_h3" />
  <path
     style="fill:#000407;stroke:none"
     d="M 12.0625,0 L 12.0625,64.75 C 10.35796,66.3989 9.11581,68.52114 8.5625,70.90625 L 0.125,70.90625 L 0,76.5625 L 8.5625,76.5625 C 9.84982,82.09545 14.79577,86.21874 20.71875,86.21875 C 26.6437,86.21875 31.5897,82.09823 32.875,76.5625 L 41.1875,76.5313 L 41.1875,70.87505 L 32.875,70.90625 C 32.28832,68.37729 30.92845,66.15509 29.0625,64.46875 L 29.0625,0 L 12.0625,0 z M 14.3125,1.9375 L 26.65625,1.9375 L 26.68945,63.52412 C 23.03923,60.90378 18.69246,60.83744 14.3457,63.52412 L 14.3125,1.9375 z M 20.71875,66.21875 C 24.85875,66.21875 28.21875,69.57875 28.21875,73.71875 C 28.21875,77.85875 24.85875,81.21875 20.71875,81.21875 C 16.57875,81.21875 13.21875,77.85875 13.21875,73.71875 C 13.21875,69.57875 16.57875,66.21875 20.71875,66.21875 z "
     id="path_stroke"
     inkscape:connector-curvature="0"
     sodipodi:nodetypes="ccccccsccccccccccccsssss" />
</svg>
