<?xml version="1.0" encoding="UTF-8" standalone="no"?>
<svg
   version="1.0"
   width="41.1875"
   height="86.218742"
   id="svg2"
   xml:space="preserve"
   xmlns="http://www.w3.org/2000/svg"
   xmlns:svg="http://www.w3.org/2000/svg"
   xmlns:rdf="http://www.w3.org/1999/02/22-rdf-syntax-ns#"
   xmlns:cc="http://creativecommons.org/ns#"
   xmlns:dc="http://purl.org/dc/elements/1.1/"><title
     id="title2983">Q81: Beacon</title><metadata
     id="metadata3080"><rdf:RDF><cc:Work
         rdf:about=""><dc:format>image/svg+xml</dc:format><dc:type
           rdf:resource="http://purl.org/dc/dcmitype/StillImage" /><cc:license
           rdf:resource="http://creativecommons.org/publicdomain/zero/1.0/" /><dc:title>Q81: Beacon</dc:title></cc:Work><cc:Work
         rdf:about=""><dc:format>image/svg+xml</dc:format><dc:type
           rdf:resource="http://purl.org/dc/dcmitype/StillImage" /></cc:Work><cc:License
         rdf:about="http://creativecommons.org/publicdomain/zero/1.0/"><cc:permits
           rdf:resource="http://creativecommons.org/ns#Reproduction" /><cc:permits
           rdf:resource="http://creativecommons.org/ns#Distribution" /><cc:permits
           rdf:resource="http://creativecommons.org/ns#DerivativeWorks" /></cc:License></rdf:RDF></metadata><defs
     id="defs4" /><path
     id="path_fill_v12"
     style="display:inline;fill:#ffffff;fill-opacity:0"
     d="M 13.049896,0.962204 H 28.385247 V 64.689102 H 13.049896 Z" /><path
     id="path_fill_v6"
     style="display:inline;fill:#ffffff;fill-opacity:0;stroke-width:1.00003"
     d="m 13.049896,0.962204 h 7.668 v 63.726898 h -7.668 z" /><path
     id="path_fill_h12"
     style="fill:#000407"
     d="M 13.049896,0.962204 H 28.385247 V 64.689102 H 13.049896 Z" /><path
     id="path_fill_h9"
     style="display:inline;fill:#ffffff;fill-opacity:0"
     d="M 13.049896,0.963 H 28.385247 V 48.759002 H 13.049896 Z" /><path
     id="path_fill_h8"
     style="display:inline;fill:#ffffff;fill-opacity:0"
     d="m 13.049896,0.963 h 15.335 v 42.484002 h -15.335 z" /><path
     id="path_fill_h6"
     style="display:inline;fill:#ffffff;fill-opacity:0"
     d="M 13.05,0.963 H 28.385351 V 32.826002 H 13.05 Z" /><path
     id="path_fill_h4"
     style="display:inline;fill:#ffffff;fill-opacity:0"
     d="M 13.049896,0.963 H 28.385247 V 22.205002 H 13.049896 Z" /><path
     id="path_fill_h3"
     style="display:inline;fill:#ffffff;fill-opacity:0"
     d="M 13.05,0.963 H 28.385351 V 16.894002 H 13.05 Z" /><path
     style="display:inline;fill:#000407;stroke:none"
     d="m 12.0625,0 v 64.749992 c -1.70454,1.6489 -2.94669,3.77114 -3.5,6.15625 H 0.125 L 0,76.562492 h 8.5625 c 1.28732,5.53295 6.23327,9.65624 12.15625,9.65625 5.92495,0 10.87095,-4.12052 12.15625,-9.65625 l 8.3125,-0.0312 v -5.65625 l -8.3125,0.0312 c -0.58668,-2.52896 -1.94655,-4.75116 -3.8125,-6.4375 V 0 Z m 2.25,1.9375 h 12.34375 l 0.0332,61.586612 c -3.65022,-2.62034 -7.99699,-2.68668 -12.34375,0 z m 6.40625,64.281242 c 4.14,0 7.5,3.36 7.5,7.5 0,4.14 -3.36,7.5 -7.5,7.5 -4.14,0 -7.5,-3.36 -7.5,-7.5 0,-4.14 3.36,-7.5 7.5,-7.5 z"
     id="path_stroke" /></svg>
