<?xml version="1.0" encoding="UTF-8" standalone="no"?>
<svg
   version="1.0"
   width="61.188"
   height="172.21899"
   id="svg2"
   xml:space="preserve"
   xmlns="http://www.w3.org/2000/svg"
   xmlns:svg="http://www.w3.org/2000/svg"
   xmlns:rdf="http://www.w3.org/1999/02/22-rdf-syntax-ns#"
   xmlns:cc="http://creativecommons.org/ns#"
   xmlns:dc="http://purl.org/dc/elements/1.1/"><title
     id="title2983">Q81: Beacon</title><metadata
     id="metadata3080"><rdf:RDF><cc:Work
         rdf:about=""><dc:format>image/svg+xml</dc:format><dc:type
           rdf:resource="http://purl.org/dc/dcmitype/StillImage" /><cc:license
           rdf:resource="http://creativecommons.org/publicdomain/zero/1.0/" /><dc:title>Q81: Beacon</dc:title></cc:Work><cc:Work
         rdf:about=""><dc:format>image/svg+xml</dc:format><dc:type
           rdf:resource="http://purl.org/dc/dcmitype/StillImage" /></cc:Work><cc:License
         rdf:about="http://creativecommons.org/publicdomain/zero/1.0/"><cc:permits
           rdf:resource="http://creativecommons.org/ns#Reproduction" /><cc:permits
           rdf:resource="http://creativecommons.org/ns#Distribution" /><cc:permits
           rdf:resource="http://creativecommons.org/ns#DerivativeWorks" /></cc:License></rdf:RDF></metadata><defs
     id="defs4" /><path
     id="path_fill_v12"
     style="fill:#ffffff;fill-opacity:0"
     d="M 23.050146,86.962452 H 38.385497 V 150.68935 H 23.050146 Z" /><path
     id="path_fill_v6"
     style="fill:#ffffff;fill-opacity:0;stroke-width:1.00003"
     d="m 30.71825,86.962452 h 7.668 v 63.726898 h -7.668 z" /><path
     id="path_fill_h12"
     style="fill:#d40000"
     d="M 23.050146,86.962452 H 38.385497 V 150.68935 H 23.050146 Z" /><path
     id="path_fill_h9"
     style="fill:#ffffff;fill-opacity:0"
     d="M 23.050146,86.963248 H 38.385497 V 134.75925 H 23.050146 Z" /><path
     id="path_fill_h8"
     style="fill:#ffffff;fill-opacity:0"
     d="m 23.050146,86.963248 h 15.335 v 42.484002 h -15.335 z" /><path
     id="path_fill_h6"
     style="fill:#ffffff;fill-opacity:0"
     d="M 23.05025,86.963248 H 38.385601 V 118.82625 H 23.05025 Z" /><path
     id="path_fill_h4"
     style="fill:#ffffff;fill-opacity:0"
     d="M 23.050146,86.963248 H 38.385497 V 108.20525 H 23.050146 Z" /><path
     id="path_fill_h3"
     style="fill:#ffffff;fill-opacity:0"
     d="M 23.05025,86.963248 H 38.385601 V 102.89425 H 23.05025 Z" /><path
     style="fill:#000407;stroke:none"
     d="m 22.06275,86.000248 v 64.749992 c -1.70454,1.6489 -2.94669,3.77114 -3.5,6.15625 h -8.4375 l -0.125,5.65625 h 8.5625 c 1.28732,5.53295 6.23327,9.65624 12.15625,9.65625 5.92495,0 10.87095,-4.12052 12.15625,-9.65625 l 8.3125,-0.0312 v -5.65625 l -8.3125,0.0312 c -0.58668,-2.52896 -1.94655,-4.75116 -3.8125,-6.4375 V 86.000248 Z m 2.25,1.9375 H 36.6565 l 0.0332,61.586612 c -3.65022,-2.62034 -7.99699,-2.68668 -12.34375,0 z M 30.719,152.21899 c 4.14,0 7.5,3.36 7.5,7.5 0,4.14 -3.36,7.5 -7.5,7.5 -4.14,0 -7.5,-3.36 -7.5,-7.5 0,-4.14 3.36,-7.5 7.5,-7.5 z"
     id="path_stroke" /></svg>
