<?xml version="1.0" encoding="UTF-8" standalone="no"?>
<svg
   version="1.0"
   width="42.425999"
   height="42.425999"
   id="svg2"
   xmlns="http://www.w3.org/2000/svg"
   xmlns:svg="http://www.w3.org/2000/svg"
   xmlns:rdf="http://www.w3.org/1999/02/22-rdf-syntax-ns#"
   xmlns:cc="http://creativecommons.org/ns#"
   xmlns:dc="http://purl.org/dc/elements/1.1/">
  <title
     id="title2983">Q9: Topmark, diamond</title>
  <metadata
     id="metadata10">
    <rdf:RDF>
      <cc:Work
         rdf:about="">
        <dc:format>image/svg+xml</dc:format>
        <dc:type
           rdf:resource="http://purl.org/dc/dcmitype/StillImage" />
        <dc:title>Q9: Topmark, diamond</dc:title>
        <cc:license
           rdf:resource="http://creativecommons.org/publicdomain/zero/1.0/" />
      </cc:Work>
      <cc:License
         rdf:about="http://creativecommons.org/publicdomain/zero/1.0/">
        <cc:permits
           rdf:resource="http://creativecommons.org/ns#Reproduction" />
        <cc:permits
           rdf:resource="http://creativecommons.org/ns#Distribution" />
        <cc:permits
           rdf:resource="http://creativecommons.org/ns#DerivativeWorks" />
      </cc:License>
    </rdf:RDF>
  </metadata>
  <defs
     id="defs8" />
  <path
     d="M 21.212891,1.0820312 1.0820312,21.212891 21.212891,41.34375 41.34375,21.212891 Z"
     id="path_fill_b2"
     style="display:inline;fill:#ffffff;fill-opacity:0" />
  <path
     d="M 21.212891,5.359375 5.359375,21.212891 21.212891,37.066406 37.066406,21.212891 Z"
     id="path_fill_b12"
     style="display:inline;fill:#ffffff;fill-opacity:0" />
  <path
     d="M 21.212891,1.0820312 1.0820312,21.212891 21.212891,41.34375 41.34375,21.212891 Z"
     id="path_fill_h12"
     style="fill:#ffffff" />
  <path
     d="M 21.212891,1.0820312 1.0820312,21.212891 H 41.34375 Z"
     id="path_fill_h6"
     style="fill:#00d400" />
  <path
     d="M 21.212891,1.0820312 1.0820312,21.212891 21.212891,41.34375 41.34375,21.212891 Z"
     id="path_fill_v12"
     style="display:inline;fill:#ffffff;fill-opacity:0" />
  <path
     d="M 21.212891,1.0820312 1.0820312,21.212891 21.212891,41.34375 31.27832,31.27832 V 11.147461 Z"
     id="path_fill_v8"
     style="display:inline;fill:#ffffff;fill-opacity:0" />
  <path
     d="M 21.212891,1.0820312 1.0820312,21.212891 21.212891,41.34375 Z"
     id="path_fill_v6"
     style="display:inline;fill:#ffffff;fill-opacity:0" />
  <path
     d="M 11.147461,11.147461 1.0820312,21.212891 11.147461,31.27832 Z"
     id="path_fill_v4"
     style="display:inline;fill:#ffffff;fill-opacity:0" />
  <path
     d="M 21.212891,1.0820312 1.0820312,21.212891 21.212891,41.34375 41.34375,21.212891 Z"
     id="path_fill_s12"
     style="display:inline;fill:#ffffff;fill-opacity:0" />
  <path
     d="M 11.147461,11.147461 1.0820312,21.212891 11.147461,31.27832 21.21289,21.213 31.27832,31.27832 41.34375,21.212891 31.27832,11.147461 21.21289,21.213 Z"
     id="path_fill_s6"
     style="display:inline;fill:#ffffff;fill-opacity:0" />
  <path
     d="M 21.213,42.426 42.426,21.213 21.213,0 0,21.213 Z m 0,-2.828 L 2.8283693,21.213 21.213,2.828 39.598,21.213 Z"
     id="path_stroke"
     style="display:inline;fill:#000000;fill-opacity:1" />
</svg>
