<?xml version="1.0" encoding="UTF-8" standalone="no"?>
<svg
   version="1.0"
   width="140.89572"
   height="43.205551"
   id="svg2"
   xmlns="http://www.w3.org/2000/svg"
   xmlns:svg="http://www.w3.org/2000/svg"
   xmlns:rdf="http://www.w3.org/1999/02/22-rdf-syntax-ns#"
   xmlns:cc="http://creativecommons.org/ns#"
   xmlns:dc="http://purl.org/dc/elements/1.1/">
  <title
     id="title2983">Q26: Superbuoy</title>
  <metadata
     id="metadata3032">
    <rdf:RDF>
      <cc:Work
         rdf:about="">
        <dc:format>image/svg+xml</dc:format>
        <dc:type
           rdf:resource="http://purl.org/dc/dcmitype/StillImage" />
        <cc:license
           rdf:resource="http://creativecommons.org/publicdomain/zero/1.0/" />
        <dc:title>Q26: Superbuoy</dc:title>
      </cc:Work>
      <cc:Work
         rdf:about="">
        <dc:format>image/svg+xml</dc:format>
        <dc:type
           rdf:resource="http://purl.org/dc/dcmitype/StillImage" />
      </cc:Work>
      <cc:License
         rdf:about="http://creativecommons.org/publicdomain/zero/1.0/">
        <cc:permits
           rdf:resource="http://creativecommons.org/ns#Reproduction" />
        <cc:permits
           rdf:resource="http://creativecommons.org/ns#Distribution" />
        <cc:permits
           rdf:resource="http://creativecommons.org/ns#DerivativeWorks" />
      </cc:License>
    </rdf:RDF>
  </metadata>
  <defs
     id="defs4" />
  <path
     style="fill:#000407"
     d="M 21.171949,30.91532 32.887729,2.43947 109.0403,1.95131 l 12.04122,28.47585 -41.167952,-0.32543 -3.09166,-5.69518 -4.06798,-3.09166 -6.50877,-0.32544 -3.90526,2.27807 -4.39342,7.15964 z"
     id="path_fill_h12" />
  <path
     style="display:inline;fill:#000407;fill-opacity:1;fill-rule:evenodd;stroke:none"
     d="M 110.92697,0.01805 31.089818,0 18.897638,27.89305 H 0 v 5.65625 h 56.739468 c 1.287321,5.53295 6.233271,9.65624 12.15625,9.65625 5.92495,0 10.87095,-4.12052 12.15625,-9.65625 H 140.89572 V 27.89305 H 122.03789 Z M 33.647478,4.89965 108.23683,4.54446 117.97935,28.2302 81.051968,27.89305 c -1.2853,-5.53573 -6.2313,-9.65625 -12.15625,-9.65625 -5.922979,10e-6 -10.868929,4.1233 -12.15625,9.65625 h -32.5625 z m 35.24824,18.3059 c 4.140001,0 7.5,3.36 7.5,7.5 0,4.14 -3.359999,7.5 -7.5,7.5 -4.14,0 -7.5,-3.36 -7.5,-7.5 0,-4.14 3.36,-7.5 7.5,-7.5 z"
     id="path_stroke" />
</svg>
