<?xml version="1.0" encoding="UTF-8" standalone="no"?>
<svg xmlns="http://www.w3.org/2000/svg" xmlns:svg="http://www.w3.org/2000/svg" xmlns:rdf="http://www.w3.org/1999/02/22-rdf-syntax-ns#" xmlns:cc="http://creativecommons.org/ns#" xmlns:dc="http://purl.org/dc/elements/1.1/" version="1.0" width="61.188" height="172.21899" id="svg2">
  <title id="title2984">Q9: Topmark, south mark</title>
  <metadata id="metadata9">
    <rdf:RDF>
      <cc:Work rdf:about="">
        <dc:format>image/svg+xml</dc:format>
        <dc:type rdf:resource="http://purl.org/dc/dcmitype/StillImage"/>
        <dc:title>Q9: Topmark, south mark</dc:title>
        <cc:license rdf:resource="http://creativecommons.org/publicdomain/zero/1.0/"/>
      </cc:Work>
      <cc:License rdf:about="http://creativecommons.org/publicdomain/zero/1.0/">
        <cc:permits rdf:resource="http://creativecommons.org/ns#Reproduction"/>
        <cc:permits rdf:resource="http://creativecommons.org/ns#Distribution"/>
        <cc:permits rdf:resource="http://creativecommons.org/ns#DerivativeWorks"/>
      </cc:License>
    </rdf:RDF>
  </metadata>
  <defs id="defs7"/>
  <path d="M 14.541016,3.8652344 29.845703,35.611328 45.150391,3.8652344 Z M 14.525391,36.365234 29.845703,67.572266 45.166016,36.365234 Z" id="path_fill_h12" style="display:none;fill:#ffffff;fill-opacity:0"/>
  <path d="m 13,3 c 0.193601,0.239989 10.506327,21.788838 15.75,32.5 H 13.03125 c 0.106672,0.03795 14.985878,30.454414 16.125,32.78125 h -1.5625 V 86 h 4.25 V 68.28125 h -1.4375 C 31.545357,65.952819 46.448489,35.469199 46.625,35.5 46.415254,35.46897 30.78125,35.5 30.78125,35.5 36.222251,24.869372 46.8125,3.288261 46.65625,3 Z m 3.3125,2 h 27 l -13.5,28 z m 0,32.5 h 27 l -13.5,27.5 z" id="path_stroke" style="display:inline;stroke:#000000;stroke-opacity:1"/>
</svg>
