<?xml version="1.0" encoding="UTF-8" standalone="no"?>
<svg
   version="1.0"
   width="122.376"
   height="108"
   id="svg2"
   xmlns="http://www.w3.org/2000/svg"
   xmlns:svg="http://www.w3.org/2000/svg"
   xmlns:rdf="http://www.w3.org/1999/02/22-rdf-syntax-ns#"
   xmlns:cc="http://creativecommons.org/ns#"
   xmlns:dc="http://purl.org/dc/elements/1.1/">
  <title
     id="title2985">Q25: Barrel</title>
  <metadata
     id="metadata3066">
    <rdf:RDF>
      <cc:Work
         rdf:about="">
        <dc:format>image/svg+xml</dc:format>
        <dc:type
           rdf:resource="http://purl.org/dc/dcmitype/StillImage" />
        <cc:license
           rdf:resource="http://creativecommons.org/publicdomain/zero/1.0/" />
        <dc:title>Q25: Barrel</dc:title>
      </cc:Work>
      <cc:Work
         rdf:about="">
        <dc:format>image/svg+xml</dc:format>
        <dc:type
           rdf:resource="http://purl.org/dc/dcmitype/StillImage" />
      </cc:Work>
      <cc:License
         rdf:about="http://creativecommons.org/publicdomain/zero/1.0/">
        <cc:permits
           rdf:resource="http://creativecommons.org/ns#Reproduction" />
        <cc:permits
           rdf:resource="http://creativecommons.org/ns#Distribution" />
        <cc:permits
           rdf:resource="http://creativecommons.org/ns#DerivativeWorks" />
      </cc:License>
    </rdf:RDF>
  </metadata>
  <defs
     id="defs4" />
  <path
     style="fill:#ffffff;fill-opacity:0"
     d="m 104.40285,95.3107 -1.98582,-12.57684 -5.95745,-13.90073 -9.26715,-9.92908 -11.91491,-1.98582 -40.37829,0.66194 -6.6194,0.66194 -9.26715,7.28133 -5.95745,16.54848 -0.66194,14.56266 37.73054,-1.32388 4.63357,-7.28133 5.95746,-2.64775 5.29551,1.32387 4.63357,4.63358 1.32388,4.63357 z"
     id="path_fill_h12" />
  <path
     d="M 57.1875,53.5 C 51.6229,53.5 46.06494,53.66306 40,54 30.70251,54.51653 23.06822,56.27268 17.75,62.625 12.70475,68.65127 10.02437,77.9064 8.03125,92.6875 H 0 v 5.65625 h 49.03125 c 1.28732,5.53295 6.23327,9.65624 12.15625,9.65625 5.92495,0 10.87095,-4.12052 12.15625,-9.65625 H 114.812 V 92.75 h -7.46825 C 105.31897,77.88849 102.37012,68.56849 97.0625,62.5625 91.4773,56.2424 83.66891,54.51633 74.375,54 68.31006,53.66306 62.7521,53.5 57.1875,53.5 Z m 0,7 c 5.42719,0 10.85439,0.16899 16.8125,0.5 8.70609,0.48367 13.8977,1.7576 17.8125,6.1875 3.63181,4.10968 6.50281,11.87657 8.46875,25.53125 L 73.34375,92.6875 c -1.2853,-5.53573 -6.2313,-9.65625 -12.15625,-9.65625 -5.92298,1e-5 -10.86893,4.1233 -12.15625,9.65625 H 43.5 c -1.03095,-12.57461 -3.69601,-21.46985 -9.8125,-31 1.95625,-0.33179 4.14041,-0.546 6.6875,-0.6875 5.95811,-0.33101 11.38531,-0.5 16.8125,-0.5 z m -30.375,3.46875 c 6.28429,9.15361 8.64265,16.50821 9.65625,28.71875 H 15.125 c 1.94217,-13.6797 4.58578,-21.4844 8,-25.5625 1.09857,-1.31218 2.30765,-2.34206 3.6875,-3.15625 z M 61.1875,88 c 4.14,0 7.5005,3.36 7.5005,7.5 0,4.14 -3.3605,7.5 -7.5005,7.5 -4.14,0 -7.4995,-3.36 -7.4995,-7.5 0,-4.14 3.3595,-7.5 7.4995,-7.5 z"
     id="path_stroke"
     style="fill:#000407;stroke:none" />
</svg>
