<?xml version="1.0" encoding="UTF-8" standalone="no"?>
<svg
   version="1.0"
   width="83.996223"
   height="68.413887"
   id="svg2"
   xmlns="http://www.w3.org/2000/svg"
   xmlns:svg="http://www.w3.org/2000/svg"
   xmlns:rdf="http://www.w3.org/1999/02/22-rdf-syntax-ns#"
   xmlns:cc="http://creativecommons.org/ns#"
   xmlns:dc="http://purl.org/dc/elements/1.1/">
  <title
     id="title2985">Q20: Conical buoy</title>
  <metadata
     id="metadata7">
    <rdf:RDF>
      <cc:Work
         rdf:about="">
        <dc:format>image/svg+xml</dc:format>
        <dc:type
           rdf:resource="http://purl.org/dc/dcmitype/StillImage" />
        <dc:title>Q20: Conical buoy</dc:title>
        <cc:license
           rdf:resource="http://creativecommons.org/publicdomain/zero/1.0/" />
      </cc:Work>
      <cc:Work
         rdf:about="">
        <dc:format>image/svg+xml</dc:format>
        <dc:type
           rdf:resource="http://purl.org/dc/dcmitype/StillImage" />
      </cc:Work>
      <cc:License
         rdf:about="http://creativecommons.org/publicdomain/zero/1.0/">
        <cc:permits
           rdf:resource="http://creativecommons.org/ns#Reproduction" />
        <cc:permits
           rdf:resource="http://creativecommons.org/ns#Distribution" />
        <cc:permits
           rdf:resource="http://creativecommons.org/ns#DerivativeWorks" />
      </cc:License>
    </rdf:RDF>
  </metadata>
  <defs
     id="defs4">
    <filter
       id="selectable_hidder_filter"
       width="1"
       height="1"
       x="0"
       y="0"
       style="color-interpolation-filters:sRGB">
      <feComposite
         id="boolops_hidder_primitive"
         result="composite1"
         operator="arithmetic"
         in2="SourceGraphic"
         in="BackgroundImage"
         k1="0"
         k2="0"
         k3="0"
         k4="0" />
    </filter>
  </defs>
  <path
     style="display:inline;fill:#ffffff;fill-opacity:0;fill-rule:evenodd;stroke:none;stroke-width:0.682941;stroke-opacity:1"
     d="m 12.71373,53.886552 c 1.66129,-2.68912 18.09767,-23.41508 23.90193,-30.13989 11.34735,-13.14702 21.6066,-21.1835005 24.87482,-19.4854305 2.64848,1.37607 5.42823,9.5426605 7.21445,21.1951405 1.03385,6.74435 3.17991,25.64956 3.17991,28.0125 0,1.15924 -0.65198,1.2588 -8.24238,1.2588 -8.19757,0 -11.00326,0.91051 -11.43264,-0.7504 -0.64225,-2.48431 -1.76933,-7.36932 -4.92505,-8.7611 -7.52812,-3.32017 -13.95965,1.25793 -16.89509,8.94694 -0.38937,1.0199 -4.4975,0.56456 -10.85511,0.56456 -5.68746,0 -7.22347,-0.18941 -6.82085,-0.84112 z"
     id="path_fill_v12" />
  <path
     d="M 46.0625,44.742187 60.867187,4.0644531 C 57.053885,3.4909453 47.318577,11.345219 36.615234,23.746094 c -5.80426,6.72481 -22.241053,27.451505 -23.902343,30.140625 -0.40262,0.65171 1.134805,0.841797 6.822265,0.841797 6.35761,0 10.466099,0.455446 10.855469,-0.564454 2.775227,-7.269352 8.674557,-11.759214 15.671875,-9.421875 z"
     style="display:inline;fill:#ffffff;fill-opacity:0;fill-rule:evenodd;stroke-width:0.682941"
     id="path_fill_v6" />
  <path
     style="fill:#ffd400"
     d="m 12.71373,53.886552 c 1.66129,-2.68912 18.09767,-23.41508 23.90193,-30.13989 11.34735,-13.14702 21.6066,-21.1835005 24.87482,-19.4854305 2.64848,1.37607 5.42823,9.5426605 7.21445,21.1951405 1.03385,6.74435 3.17991,25.64956 3.17991,28.0125 0,1.15924 -0.65198,1.2588 -8.24238,1.2588 -8.19757,0 -11.00326,0.91051 -11.43264,-0.7504 -0.64225,-2.48431 -1.76933,-7.36932 -4.92505,-8.7611 -7.52812,-3.32017 -13.95965,1.25793 -16.89509,8.94694 -0.38937,1.0199 -4.4975,0.56456 -10.85511,0.56456 -5.68746,0 -7.22347,-0.18941 -6.82085,-0.84112 z"
     id="path_fill_h12" />
  <path
     id="path_fill_h9"
     style="display:inline;fill:#ffffff;fill-opacity:0;stroke-width:1.85325;stroke-miterlimit:4.1"
     d="M 60.392578,4.0371098 C 56.289843,4.115516 46.89877,11.831607 36.615234,23.746094 34.153335,26.598447 29.778386,31.970623 25.429688,37.416015 l 18.912109,6.882813 c 0.002,3.66e-4 0.0039,0.0016 0.0059,0.002 0.956107,0.173484 1.937025,0.47477 2.9375,0.916015 0.270713,0.11939 0.525751,0.264552 0.767578,0.431642 l 23.539063,8.568359 C 71.833453,54.037174 71.88479,53.79408 71.884787,53.468758 71.884765,51.10581 69.738928,32.201381 68.705078,25.457031 66.918858,13.804551 64.138715,5.6377886 61.490234,4.2617188 61.183839,4.1025248 60.817001,4.0289944 60.392578,4.0371098 Z" />
  <path
     id="path_fill_h8"
     style="fill:#a52a2a"
     d="M 60.392578,4.0371098 C 56.289843,4.115516 46.89877,11.831607 36.615234,23.746094 34.153335,26.598447 29.778386,31.970623 25.429688,37.416015 l 18.912109,6.882813 c 0.002,3.66e-4 0.0039,0.0016 0.0059,0.002 0.956107,0.173484 1.937025,0.47477 2.9375,0.916015 0.270713,0.11939 0.525751,0.264552 0.767578,0.431642 l 23.539063,8.568359 C 71.833453,54.037174 71.88479,53.79408 71.884787,53.468758 71.884765,51.10581 69.738928,32.201381 68.705078,25.457031 66.918858,13.804551 64.138715,5.6377886 61.490234,4.2617188 61.183839,4.1025248 60.817001,4.0289944 60.392578,4.0371098 Z" />
  <path
     id="path_fill_h6"
     style="display:inline;fill:#ffffff;fill-opacity:0;stroke-width:1.55462;stroke-miterlimit:4.1"
     d="M 60.392578,4.0371098 C 56.289843,4.115516 46.89877,11.831607 36.615234,23.746094 c -0.644809,0.747076 -1.42056,1.668055 -2.292969,2.716797 L 70.513671,39.634766 C 69.886112,34.196417 69.17907,28.549133 68.705078,25.457031 66.918858,13.804551 64.138715,5.6377886 61.490234,4.2617188 61.183839,4.1025248 60.817001,4.0289944 60.392578,4.0371098 Z" />
  <path
     id="path_fill_h3"
     style="display:inline;fill:#ffffff;fill-opacity:0;stroke-width:1.18289;stroke-miterlimit:4.1"
     d="M 60.345703,4.0371096 C 57.235864,4.1394911 51.155937,8.5406353 43.964844,15.78125 L 68.59375,24.746094 C 66.804714,13.473079 64.084529,5.6096364 61.490234,4.2617188 61.172589,4.0966745 60.79001,4.0224801 60.345703,4.0371096 Z" />
  <path
     id="path_fill_h4"
     style="fill:#ffd400"
     d="m 60.480469,4.0351563 c -3.744268,-0.030094 -12.088701,6.5703227 -21.5,17.0292967 L 69.621094,32.216797 C 69.280556,29.512229 68.959475,27.116594 68.705078,25.457031 66.918858,13.804551 64.138715,5.6377886 61.490234,4.2617188 61.205279,4.1136592 60.86781,4.0382609 60.480469,4.0351563 Z" />
  <path
     d="m 58.402474,0.0076323 c -3.94627,0.06541 -7.53201,2.2206599 -11.28125,5.1874999 -3.99919,3.16463 -8.22839,7.4953718 -12.65625,12.5937518 -8.77416,10.10285 -18.27948,23.16687 -27.15625,35.3125 H 0.15247396 v 5.65625 H 29.839974 c 1.28732,5.53295 6.23327,9.65624 12.15625,9.65625 5.92495,0 10.87095,-4.12052 12.15625,-9.65625 h 29.84375 v -0.0625 -5.59375 h -7.71875 c -1.27604,-11.32703 -2.18516,-23.37284 -4,-33.09375 -0.95465,-5.1134 -2.12258,-9.57496 -4,-13.1562518 -1.87742,-3.58129 -4.96813,-6.6134199 -9.09375,-6.8437499 -0.26657,-0.01474 -0.51817,-0.00436 -0.78125,0 z m 0.375,6.9687499 c 1.08458,0.06055 1.99502,0.67144 3.28125,3.1250018 1.28623,2.45356 2.45169,6.40931 3.34375,11.1875 1.65735,8.87736 2.55992,20.53184 3.8125,31.8125 h -15.0625 c -1.2853,-5.53573 -6.2313,-9.65625 -12.15625,-9.65625 -5.92298,10e-6 -10.86893,4.1233 -12.15625,9.65625 h -13.84375 c 7.97792,-10.90142 16.24031,-22.07186 23.75,-30.71875 4.26874,-4.91516 8.30177,-9.01484 11.71875,-11.71875 3.41698,-2.7039118 6.21148,-3.7483918 7.3125,-3.6875018 z M 41.996224,48.413884 c 4.14,0 7.5,3.36 7.5,7.5 0,4.14 -3.36,7.5 -7.5,7.5 -4.14,0 -7.5,-3.36 -7.5,-7.5 0,-4.14 3.36,-7.5 7.5,-7.5 z"
     id="path_stroke"
     style="display:inline;fill:#000407;fill-opacity:1;fill-rule:evenodd;stroke:none" />
</svg>
