<?xml version="1.0" encoding="UTF-8" standalone="no"?>
<svg xmlns="http://www.w3.org/2000/svg" xmlns:svg="http://www.w3.org/2000/svg" xmlns:rdf="http://www.w3.org/1999/02/22-rdf-syntax-ns#" xmlns:cc="http://creativecommons.org/ns#" xmlns:dc="http://purl.org/dc/elements/1.1/" version="1.0" width="122.376" height="108" id="svg2">
  <title id="title2983">Q9: Topmark, cross</title>
  <metadata id="metadata10">
    <rdf:RDF>
      <cc:Work rdf:about="">
        <dc:format>image/svg+xml</dc:format>
        <dc:type rdf:resource="http://purl.org/dc/dcmitype/StillImage"/>
        <dc:title>Q9: Topmark, cross</dc:title>
        <cc:license rdf:resource="http://creativecommons.org/publicdomain/zero/1.0/"/>
      </cc:Work>
      <cc:Work rdf:about="">
        <dc:format>image/svg+xml</dc:format>
        <dc:type rdf:resource="http://purl.org/dc/dcmitype/StillImage"/>
      </cc:Work>
      <cc:License rdf:about="http://creativecommons.org/publicdomain/zero/1.0/">
        <cc:permits rdf:resource="http://creativecommons.org/ns#Reproduction"/>
        <cc:permits rdf:resource="http://creativecommons.org/ns#Distribution"/>
        <cc:permits rdf:resource="http://creativecommons.org/ns#DerivativeWorks"/>
      </cc:License>
    </rdf:RDF>
  </metadata>
  <defs id="defs8"/>
  <path style="fill:#ffd400" d="m 76.269168,43.507049 9.244051,3.364559 6.201482,-16.55093 16.508309,5.831097 2.93714,-9.044747 L 95.50667,20.877322 100.8107,4.3546158 91.467,0.77635116 85.593277,16.914272 l -16.309,-5.403686 -3.421586,9.40073 16.137921,5.873723 z" id="path_fill_h12"/>
  <path d="M 102.22775,3.8311885 96.242397,20.275809 112.68702,26.261162 108.58278,37.537473 92.138156,31.552121 86.152803,47.996742 82.482129,46.660726 78.377887,57.937037 74.384194,56.483451 78.488435,45.20714 74.876492,43.8925 80.861844,27.447879 64.417223,21.462527 68.521465,10.186215 84.966086,16.171568 90.951439,-0.27305317 Z M 99.664324,5.0265335 92.146783,2.2903724 86.161431,18.734993 69.71681,12.749641 l -2.736161,7.517541 16.444621,5.985352 -5.985353,16.444621 7.517541,2.736161 5.985353,-16.444621 16.444619,5.985353 2.73616,-7.517541 -16.444618,-5.985353 z" id="path_stroke" style="fill:#000000"/>
</svg>
