<?xml version="1.0" encoding="UTF-8" standalone="no"?>
<svg
   version="1.0"
   width="92.413002"
   height="111.57813"
   id="svg2"
   xmlns="http://www.w3.org/2000/svg"
   xmlns:svg="http://www.w3.org/2000/svg"
   xmlns:rdf="http://www.w3.org/1999/02/22-rdf-syntax-ns#"
   xmlns:cc="http://creativecommons.org/ns#"
   xmlns:dc="http://purl.org/dc/elements/1.1/">
  <title
     id="title2984">Q23: Green and white pillar buoy</title>
  <metadata
     id="metadata3263">
    <rdf:RDF>
      <cc:Work
         rdf:about="">
        <dc:format>image/svg+xml</dc:format>
        <dc:type
           rdf:resource="http://purl.org/dc/dcmitype/StillImage" />
        <cc:license
           rdf:resource="http://creativecommons.org/publicdomain/zero/1.0/" />
        <dc:title>Q23: Green and white pillar buoy</dc:title>
      </cc:Work>
      <cc:Work
         rdf:about="">
        <dc:format>image/svg+xml</dc:format>
        <dc:type
           rdf:resource="http://purl.org/dc/dcmitype/StillImage" />
      </cc:Work>
      <cc:License
         rdf:about="http://creativecommons.org/publicdomain/zero/1.0/">
        <cc:permits
           rdf:resource="http://creativecommons.org/ns#Reproduction" />
        <cc:permits
           rdf:resource="http://creativecommons.org/ns#Distribution" />
        <cc:permits
           rdf:resource="http://creativecommons.org/ns#DerivativeWorks" />
      </cc:License>
    </rdf:RDF>
  </metadata>
  <defs
     id="defs4" />
  <path
     style="fill:#00d400"
     d="M 73.713268,3.3753774 44.172441,68.875385 11.969552,98.266802 36.16751,98.63309 l 2.36307,-6.07648 6.07647,-3.7134 5.73889,0.67517 5.06372,5.06372 1.35033,4.38857 13.417145,0.211853 L 67.235923,78.61474 86.902228,8.0971454 Z"
     id="path_fill_h12" />
  <path
     id="path_fill_h9"
     style="display:inline;fill:#ffffff;fill-opacity:0;stroke:none;stroke-width:5.33134;stroke-miterlimit:4.1;stroke-dasharray:none;stroke-opacity:0.715667"
     d="m 70.421777,-22.039831 -5.357155,71.653489 -1.730433,3.308977 27.8292,0.0015 -1.093914,-2.046131 -5.635575,-72.954645 -7.006567,-1.04e-4 z"
     transform="rotate(20)" />
  <path
     id="path_fill_h8"
     style="fill:#ffffff"
     d="m 70.421777,-22.039831 -5.357155,71.653489 -1.730433,3.308977 27.8292,0.0015 -1.093914,-2.046131 -5.635575,-72.954645 -7.006567,-1.04e-4 z"
     transform="rotate(20)" />
  <path
     id="path_fill_h6"
     style="display:inline;fill:#ffffff;fill-opacity:0;stroke:none;stroke-width:4.35302;stroke-miterlimit:4.1;stroke-dasharray:none;stroke-opacity:0.715667"
     d="m 70.421777,-22.039831 -3.734764,49.962337 21.609743,-3.64e-4 -3.862856,-49.99881 -7.006567,-1.04e-4 z"
     transform="rotate(20)" />
  <path
     id="path_fill_h4"
     style="fill:#00d400"
     d="m 70.421777,-22.039831 -2.800992,37.46341 19.709798,-9.72e-4 -2.896683,-37.499275 -7.006567,-1.04e-4 z"
     transform="rotate(20)" />
  <path
     id="path_fill_h3"
     style="display:inline;fill:#ffffff;fill-opacity:0;stroke:none;stroke-width:3.07805;stroke-miterlimit:4.1;stroke-dasharray:none;stroke-opacity:0.715667"
     d="M 70.421777,-22.039831 68.555724,2.9221477 86.36441,2.923071 84.4339,-22.076668 l -7.006567,-1.04e-4 z"
     transform="rotate(20)" />
  <path
     style="display:inline;fill:#ffffff;fill-opacity:0;stroke:none;stroke-width:1px;stroke-linecap:butt;stroke-linejoin:miter;stroke-opacity:1"
     d="M 73.713268,3.3753774 44.172441,68.875385 11.969552,98.266802 36.16751,98.63309 l 2.36307,-6.07648 6.07647,-3.7134 5.73889,0.67517 5.06372,5.06372 1.35033,4.38857 13.417145,0.211853 L 67.235923,78.61474 86.902228,8.0971454 Z"
     id="path_fill_v12" />
  <path
     id="path_fill_v6"
     style="display:inline;fill:#ffffff;fill-opacity:0;stroke:none;stroke-width:1px;stroke-linecap:butt;stroke-linejoin:miter;stroke-opacity:1"
     d="M 73.712891,3.375 44.171875,68.875 11.96875,98.267578 36.167969,98.632812 38.53125,92.556641 44.607422,88.84375 49.716797,89.443359 80.199219,5.6972656 Z" />
  <path
     id="path_stroke"
     style="display:inline;fill:#000407;fill-opacity:1;fill-rule:evenodd;stroke:none"
     d="M 72.347656,0 40.75,67.89453 9.3261719,96.26563 H 0 v 5.65625 h 34.0625 c 1.28732,5.53295 6.23327,9.65624 12.15625,9.65625 5.92495,0 10.87095,-4.12052 12.15625,-9.65625 H 82.5 V 96.26563 H 72.890625 L 70.447266,78.70313 89.882812,6.380859 Z m 3.53711,8.525391 5.808593,2.115234 -18.173828,67.632815 2.503907,17.99219 H 58.375 c -1.28251,-5.53957 -6.22858,-9.6875 -12.15625,-9.6875 -5.92576,0 -10.87178,4.15062 -12.15625,9.6875 H 19.478516 L 46.335938,72.01758 Z M 46.207031,91.58984 c 4.14,0 7.5,3.36 7.5,7.50001 0,4.14 -3.36,7.5 -7.5,7.5 -4.14,0 -7.5,-3.36 -7.5,-7.5 0,-4.14001 3.36,-7.50001 7.5,-7.50001 z" />
</svg>
