<?xml version="1.0" encoding="UTF-8" standalone="no"?>
<svg
   version="1.0"
   width="28.0625"
   height="67.9375"
   id="svg2"
   xmlns="http://www.w3.org/2000/svg"
   xmlns:svg="http://www.w3.org/2000/svg"
   xmlns:rdf="http://www.w3.org/1999/02/22-rdf-syntax-ns#"
   xmlns:cc="http://creativecommons.org/ns#"
   xmlns:dc="http://purl.org/dc/elements/1.1/">
  <title
     id="title2983">Q9: Topmark, two balls</title>
  <metadata
     id="metadata10">
    <rdf:RDF>
      <cc:Work
         rdf:about="">
        <dc:format>image/svg+xml</dc:format>
        <dc:type
           rdf:resource="http://purl.org/dc/dcmitype/StillImage" />
        <dc:title>Q9: Topmark, two balls</dc:title>
        <cc:license
           rdf:resource="http://creativecommons.org/publicdomain/zero/1.0/" />
      </cc:Work>
      <cc:Work
         rdf:about="">
        <dc:format>image/svg+xml</dc:format>
        <dc:type
           rdf:resource="http://purl.org/dc/dcmitype/StillImage" />
      </cc:Work>
      <cc:License
         rdf:about="http://creativecommons.org/publicdomain/zero/1.0/">
        <cc:permits
           rdf:resource="http://creativecommons.org/ns#Reproduction" />
        <cc:permits
           rdf:resource="http://creativecommons.org/ns#Distribution" />
        <cc:permits
           rdf:resource="http://creativecommons.org/ns#DerivativeWorks" />
      </cc:License>
    </rdf:RDF>
  </metadata>
  <defs
     id="defs8" />
  <path
     style="fill:#ffd400"
     d="M 14.044902,53.778181 L 10.096631,53.233592 L 7.237538,52.008267 L 5.059181,50.374499 L 3.4254133,48.468437 L 2.2000877,46.426227 L 1.2470566,43.839429 L 0.974762,40.980336 L 1.3832039,37.848948 L 2.7446769,34.309118 L 4.923034,31.72232 L 7.782127,29.543963 L 11.185809,28.18249 L 12.002693,26.821017 L 7.645979,25.187249 L 4.786886,22.872745 L 2.4723823,20.285947 L 1.2470566,16.60997 L 1.1109093,13.206288 L 1.7916458,9.530311 L 3.8338552,5.854334 L 7.373685,2.859093 L 11.866546,1.089178 L 14.725639,0.953031 L 17.857027,1.49762 L 20.71612,2.722946 L 23.030624,4.629008 L 24.664391,6.807365 L 26.162012,9.394163 L 26.706601,12.253257 L 26.978895,15.793086 L 25.617422,20.285947 L 23.439066,23.14504 L 20.171531,25.459544 L 15.406375,27.093312 L 19.082352,29.135521 L 21.805298,30.496994 L 23.847508,32.130762 L 25.889717,34.853707 L 26.978895,39.210421 L 26.978895,42.341809 L 26.434306,45.473196 L 24.936686,48.33229 L 22.486035,51.055235 L 20.035383,52.689003 L 17.040143,53.642034 L 14.044902,53.778181 z "
     id="path_fill_h12" />
  <path
     d="M 14.03125,0 C 6.225114,0 0,6.291548 0,13.9375 0,20.405752 4.462787,25.896531 10.5625,27.4375 4.462787,28.978469 0,34.469248 0,40.9375 0,47.872635 5.128041,53.696101 11.90625,54.71875 V 67.9375 h 4.25 V 54.71875 C 22.934459,53.696101 28.0625,47.872635 28.0625,40.9375 c 0,-6.468252 -4.462786,-11.959031 -10.5625,-13.5 6.099714,-1.540969 10.5625,-7.031748 10.5625,-13.5 C 28.0625,6.291548 21.837386,0 14.03125,0 Z m 0,1.875 C 20.584518,1.875 26,7.224049 26,13.9375 26,20.650951 20.584518,26 14.03125,26 7.477983,26 2.0625,20.650951 2.0625,13.9375 2.0625,7.224049 7.477983,1.875 14.03125,1.875 Z m 0,27 C 20.584518,28.875 26,34.224049 26,40.9375 26,47.650951 20.584518,53 14.03125,53 7.477983,53 2.0625,47.650951 2.0625,40.9375 2.0625,34.224049 7.477983,28.875 14.03125,28.875 Z"
     id="path_stroke"
     style="display:inline" />
</svg>
