<?xml version="1.0" encoding="UTF-8" standalone="no"?>
<svg xmlns="http://www.w3.org/2000/svg" xmlns:svg="http://www.w3.org/2000/svg" xmlns:rdf="http://www.w3.org/1999/02/22-rdf-syntax-ns#" xmlns:cc="http://creativecommons.org/ns#" xmlns:dc="http://purl.org/dc/elements/1.1/" version="1.0" width="61.188" height="172.21899" id="svg2">
  <title id="title2983">Q9: Topmark, square</title>
  <metadata id="metadata10">
    <rdf:RDF>
      <cc:Work rdf:about="">
        <dc:format>image/svg+xml</dc:format>
        <dc:type rdf:resource="http://purl.org/dc/dcmitype/StillImage"/>
        <dc:title>Q9: Topmark, square</dc:title>
        <cc:license rdf:resource="http://creativecommons.org/publicdomain/zero/1.0/"/>
      </cc:Work>
      <cc:License rdf:about="http://creativecommons.org/publicdomain/zero/1.0/">
        <cc:permits rdf:resource="http://creativecommons.org/ns#Reproduction"/>
        <cc:permits rdf:resource="http://creativecommons.org/ns#Distribution"/>
        <cc:permits rdf:resource="http://creativecommons.org/ns#DerivativeWorks"/>
      </cc:License>
    </rdf:RDF>
  </metadata>
  <defs id="defs8"/>
  <path d="M 16.009766,57.009766 V 84.990234 H 43.990234 V 57.009766 Z" id="path_fill_h12" style="display:inline;fill:#ffffff;fill-opacity:0"/>
  <path d="M 16.009766,57.009766 V 77.5 H 43.990234 V 57.009766 Z" id="path_fill_h8" style="display:inline;fill:#ffffff;fill-opacity:0"/>
  <path d="m 16.009766,57.009766 v 13.99 h 27.980468 v -13.99 z" id="path_fill_h6" style="display:inline;fill:#ffffff;fill-opacity:0;stroke-width:0.707101"/>
  <path d="M 16.009766,57.009766 V 64.5 h 27.980468 v -7.490234 z" id="path_fill_h4" style="display:inline;fill:#ffffff;fill-opacity:0"/>
  <path d="M 16,57 V 85 H 44 V 57 Z" id="path_fill_v12" style="fill:#ffd400"/>
  <path d="M 16,57 V 85 H 36.5 V 57 Z" id="path_fill_v8" style="fill:#000407"/>
  <path d="M 16,57 V 85 H 31 V 57 Z" id="path_fill_v6" style="display:inline;fill:#ffffff;fill-opacity:0;stroke-width:0.732437"/>
  <path d="m 16,57 v 28 h 7.5 V 57 Z" id="path_fill_v4" style="fill:#ffd400"/>
  <path d="M 16.009766,57.009766 V 84.990234 H 43.990234 V 57.009766 Z" id="path_fill_b12" style="display:inline;fill:#ffffff;fill-opacity:0"/>
  <path d="M 16.009766,57.009766 V 84.990234 H 43.990234 V 57.009766 Z M 34,67 v 8 h -8 v -8 z" id="path_fill_b9" style="display:inline;fill:#ffffff;fill-opacity:0"/>
  <path d="M 16.009766,57.009766 V 84.990234 H 43.990234 V 57.009766 Z M 37,64 V 78 H 23 V 64 Z" id="path_fill_b6" style="display:inline;fill:#ffffff;fill-opacity:0"/>
  <path d="M 16.009766,57.009766 V 84.990234 H 43.990234 V 57.009766 Z M 40,61 V 81 H 20 V 61 Z" id="path_fill_b3" style="display:inline;fill:#ffffff;fill-opacity:0"/>
  <path d="M 43.990234,57.009766 V 84.990234 H 16.009766 V 57.009766 Z M 19,60 V 82 H 41 V 60 Z" id="path_fill_b2" style="display:inline;fill:#ffffff;fill-opacity:0"/>
  <path d="M 15,56 V 86 H 45 V 56 Z m 2,2 H 43 V 84 H 17 Z" id="path_stroke" style="display:inline"/>
</svg>
