<?xml version="1.0" encoding="UTF-8" standalone="no"?>
<svg
   version="1.0"
   width="88.872002"
   height="61.970165"
   id="svg2"
   xmlns="http://www.w3.org/2000/svg"
   xmlns:svg="http://www.w3.org/2000/svg"
   xmlns:rdf="http://www.w3.org/1999/02/22-rdf-syntax-ns#"
   xmlns:cc="http://creativecommons.org/ns#"
   xmlns:dc="http://purl.org/dc/elements/1.1/">
  <title
     id="title2983">Q22: Spherical buoy</title>
  <metadata
     id="metadata3422">
    <rdf:RDF>
      <cc:Work
         rdf:about="">
        <dc:format>image/svg+xml</dc:format>
        <dc:type
           rdf:resource="http://purl.org/dc/dcmitype/StillImage" />
        <cc:license
           rdf:resource="http://creativecommons.org/publicdomain/zero/1.0/" />
        <dc:title>Q22: Spherical buoy</dc:title>
      </cc:Work>
      <cc:Work
         rdf:about="">
        <dc:format>image/svg+xml</dc:format>
        <dc:type
           rdf:resource="http://purl.org/dc/dcmitype/StillImage" />
      </cc:Work>
      <cc:License
         rdf:about="http://creativecommons.org/publicdomain/zero/1.0/">
        <cc:permits
           rdf:resource="http://creativecommons.org/ns#Reproduction" />
        <cc:permits
           rdf:resource="http://creativecommons.org/ns#Distribution" />
        <cc:permits
           rdf:resource="http://creativecommons.org/ns#DerivativeWorks" />
      </cc:License>
    </rdf:RDF>
  </metadata>
  <defs
     id="defs4" />
  <path
     style="display:inline;fill:#ffffff;fill-opacity:0;stroke:none;stroke-width:1px;stroke-linecap:butt;stroke-linejoin:miter;stroke-opacity:1"
     d="m 23.441742,49.911557 h 9.26715 l 1.98582,-5.29551 5.95745,-4.63357 7.94327,-0.66194 3.3097,3.97163 3.30969,5.95745 h 19.19624 l 4.63358,-8.60521 v -6.61939 l -1.98582,-10.59103 -5.29552,-9.92908 -6.61939,-5.29552 -7.94327,-3.97163 -9.92909,-1.32388 -9.92909,1.98582 -7.28133,5.95745 -7.28133,8.60521 -2.64776,9.26715 -0.66194,7.94327 z"
     id="path_fill_v12" />
  <path
     id="path_fill_v6"
     style="display:inline;fill:#ffffff;fill-opacity:0;stroke:none;stroke-width:1px;stroke-linecap:butt;stroke-linejoin:miter;stroke-opacity:1"
     d="m 47.272393,2.9140625 -9.929688,1.9863281 -7.28125,5.9570314 -7.28125,8.605469 -2.648438,9.267578 -0.662109,7.941406 3.9375,13.126953 0.314453,0.113281 H 32.70794 L 34.694268,44.615234 40.651299,39.982422 48.11419,39.359375 60.329033,5.8027344 57.200127,4.2382812 Z" />
  <path
     style="fill:#ffd400"
     d="m 23.441742,49.911557 h 9.26715 l 1.98582,-5.29551 5.95745,-4.63357 7.94327,-0.66194 3.3097,3.97163 3.30969,5.95745 h 19.19624 l 4.63358,-8.60521 v -6.61939 l -1.98582,-10.59103 -5.29552,-9.92908 -6.61939,-5.29552 -7.94327,-3.97163 -9.92909,-1.32388 -9.92909,1.98582 -7.28133,5.95745 -7.28133,8.60521 -2.64776,9.26715 -0.66194,7.94327 z"
     id="path_fill_h12" />
  <path
     id="path_fill_h9"
     style="display:inline;fill:#ffffff;fill-opacity:0;stroke:none;stroke-width:0.967342;stroke-miterlimit:4.1"
     d="m 47.272392,2.9140623 -9.929687,1.9863284 -7.28125,5.9570313 -7.28125,8.605468 -2.078125,7.269532 55.04688,20.033191 3.294917,-6.121082 v -6.61914 L 77.059502,23.433594 71.762627,13.505859 65.143486,8.2089844 57.200127,4.238281 Z" />
  <path
     id="path_fill_h8"
     style="fill:#000407"
     d="m 47.272392,2.9140623 -9.929687,1.9863284 -7.28125,5.9570313 -7.28125,8.605468 -1.158203,4.054688 55.722658,20.283198 1.699217,-3.156245 v -6.61914 L 77.059502,23.433594 71.762627,13.505859 65.143486,8.2089844 57.200127,4.238281 Z" />
  <path
     id="path_fill_h6"
     style="display:inline;fill:#ffffff;fill-opacity:0;stroke:none;stroke-width:0.817553;stroke-miterlimit:4.1"
     d="m 47.272392,2.9140623 -9.929687,1.9863284 -7.28125,5.9570313 -5.587891,6.605469 54.5703,19.85941 1.3e-5,-3.29691 L 77.059502,23.433594 71.762627,13.505859 65.143486,8.2089844 57.200127,4.238281 Z" />
  <path
     id="path_fill_h4"
     style="fill:#ffd400"
     d="M 47.272392,2.9140623 37.342705,4.9003907 30.061455,10.857422 29.063408,12.037109 78.280205,29.951172 77.059502,23.433594 71.762627,13.505859 65.143486,8.2089844 57.200127,4.238281 Z" />
  <path
     id="path_fill_h3"
     style="display:inline;fill:#ffffff;fill-opacity:0;stroke:none;stroke-width:0.633274;stroke-miterlimit:4.1"
     d="M 47.272392,2.9140623 37.342705,4.9003907 31.756767,9.470703 77.567314,26.14258 77.059502,23.433594 71.762627,13.505859 65.143486,8.2089844 57.200127,4.238281 Z" />
  <path
     d="m 49.059502,0.001417 c -5.67213,0.04897999 -11.40588,1.52368 -16.625,4.59375 -14.66147,8.6244 -20.34244,26.81223 -13.8125,42.0625 h -8.0625 v 5.65625 h 21.71875 c 1.28732,5.53295 6.23327,9.65624 12.15625,9.65625 5.92495,0 10.87095,-4.12052 12.15625,-9.65625 l 32.28125,0.03125 v -5.65625 l -8.59375,-0.03125 c 4.23899,-9.77187 3.57606,-20.76132 -1.96875,-30.1875 -5.84775,-9.94118 -16.07241,-15.72806 -26.8125,-16.40625 -0.80551,-0.05086 -1.6272,-0.0695 -2.4375,-0.0625 z m 0.75,6.9375 c 8.94702,0.12249 17.58881,4.79785 22.46875,13.09375 5.04512,8.5767 5.07245,18.06388 0.125,26.625 l -15.8125,-0.03125 c -1.2853,-5.53573 -6.2313,-9.65625 -12.15625,-9.65625 -5.92298,1e-5 -10.86893,4.1233 -12.15625,9.65625 h -5.84375 c -7.20997,-12.59943 -2.98519,-28.61901 9.5625,-36 4.34547,-2.55616 9.12597,-3.75166 13.8125,-3.6875 z m -5.375,35.03125 c 4.14,0 7.5,3.36 7.5,7.5 0,4.14 -3.36,7.5 -7.5,7.5 -4.14,0 -7.5,-3.36 -7.5,-7.5 0,-4.14 3.36,-7.5 7.5,-7.5 z"
     id="path_stroke"
     style="display:inline;fill:#000407;fill-opacity:1;fill-rule:evenodd;stroke:none" />
</svg>
