<?xml version="1.0" encoding="UTF-8" standalone="no"?>
<svg
   version="1.0"
   width="34"
   height="47.0625"
   id="svg2"
   xmlns="http://www.w3.org/2000/svg"
   xmlns:svg="http://www.w3.org/2000/svg"
   xmlns:rdf="http://www.w3.org/1999/02/22-rdf-syntax-ns#"
   xmlns:cc="http://creativecommons.org/ns#"
   xmlns:dc="http://purl.org/dc/elements/1.1/">
  <title
     id="title2984">Q9: Topmark, sphere</title>
  <metadata
     id="metadata10">
    <rdf:RDF>
      <cc:Work
         rdf:about="">
        <dc:format>image/svg+xml</dc:format>
        <dc:type
           rdf:resource="http://purl.org/dc/dcmitype/StillImage" />
        <dc:title>Q9: Topmark, sphere</dc:title>
        <cc:license
           rdf:resource="http://creativecommons.org/publicdomain/zero/1.0/" />
      </cc:Work>
      <cc:Work
         rdf:about="">
        <dc:format>image/svg+xml</dc:format>
        <dc:type
           rdf:resource="http://purl.org/dc/dcmitype/StillImage" />
      </cc:Work>
      <cc:License
         rdf:about="http://creativecommons.org/publicdomain/zero/1.0/">
        <cc:permits
           rdf:resource="http://creativecommons.org/ns#Reproduction" />
        <cc:permits
           rdf:resource="http://creativecommons.org/ns#Distribution" />
        <cc:permits
           rdf:resource="http://creativecommons.org/ns#DerivativeWorks" />
      </cc:License>
    </rdf:RDF>
  </metadata>
  <defs
     id="defs8" />
  <path
     d="M 17,1.8203125 6.2578125,6.2578125 1.8203125,17 6.2578125,27.742187 17,32.179687 27.742187,27.742187 32.179687,17 27.742187,6.2578125 Z"
     id="path_fill_h12"
     style="fill:#00d400" />
  <path
     d="M 17,1.8203125 6.2578125,6.2578125 1.8203125,17 H 32.179687 l -4.4375,-10.7421875 z"
     id="path_fill_h6"
     style="display:none;fill:#ffffff;fill-opacity:0" />
  <path
     d="M 17,1.8203125 6.2578125,6.2578125 1.82,17 v 4 H 32.18 V 17 L 27.742187,6.2578125 Z"
     id="path_fill_h8"
     style="display:inline;fill:#ffffff;fill-opacity:0" />
  <path
     d="M 17,1.8203125 6.2578125,6.2578125 1.82,13 h 30.359687 l -4.4375,-6.7421875 z"
     id="path_fill_h4"
     style="display:inline;fill:#ffffff;fill-opacity:0" />
  <path
     d="M 17,0 C 7.6433,0 0,7.6433 0,17 0,25.652489 6.5545722,32.842141 14.9375,33.875 v 13.1875 h 4.25 V 33.875 C 27.511578,32.787617 34,25.610342 34,17 34,7.6433 26.3567,0 17,0 Z m 0,5 c 6.6513,0 12,5.3487 12,12 0,6.6513 -5.3487,12 -12,12 C 10.3487,29 5,23.6513 5,17 5,10.3487 10.3487,5 17,5 Z"
     id="path_stroke"
     style="display:inline" />
</svg>
