<?xml version="1.0" encoding="UTF-8" standalone="no"?>
<svg xmlns="http://www.w3.org/2000/svg" xmlns:svg="http://www.w3.org/2000/svg" xmlns:rdf="http://www.w3.org/1999/02/22-rdf-syntax-ns#" xmlns:cc="http://creativecommons.org/ns#" xmlns:dc="http://purl.org/dc/elements/1.1/" version="1.0" width="122.376" height="108" id="svg2">
  <title id="title2983">Q9: Topmark, X</title>
  <metadata id="metadata10">
    <rdf:RDF>
      <cc:Work rdf:about="">
        <dc:format>image/svg+xml</dc:format>
        <dc:type rdf:resource="http://purl.org/dc/dcmitype/StillImage"/>
        <dc:title>Q9: Topmark, X</dc:title>
        <cc:license rdf:resource="http://creativecommons.org/publicdomain/zero/1.0/"/>
      </cc:Work>
      <cc:Work rdf:about="">
        <dc:format>image/svg+xml</dc:format>
        <dc:type rdf:resource="http://purl.org/dc/dcmitype/StillImage"/>
      </cc:Work>
      <cc:License rdf:about="http://creativecommons.org/publicdomain/zero/1.0/">
        <cc:permits rdf:resource="http://creativecommons.org/ns#Reproduction"/>
        <cc:permits rdf:resource="http://creativecommons.org/ns#Distribution"/>
        <cc:permits rdf:resource="http://creativecommons.org/ns#DerivativeWorks"/>
      </cc:License>
    </rdf:RDF>
  </metadata>
  <defs id="defs8"/>
  <path style="fill:#000407" d="M 94.163703,46.738285 103.41146,42.335573 95.81301,26.62226 111.55594,19.281207 107.33138,10.221593 91.736961,17.49339 84.178135,1.67119 75.078887,6.0046444 82.489196,21.8961 l -15.891457,7.410308 4.155313,8.911097 15.851824,-7.301421 z" id="path_fill_h12"/>
  <path d="M 108.04725,8.9207961 113.10879,19.775301 97.247597,27.171498 104.64379,43.032693 93.778601,48.123598 87.876585,35.466684 79.67879,57.989942 75.039057,56.301217 83.258229,33.719229 70.521208,39.658599 65.440992,28.764041 81.302188,21.367844 73.905991,5.5066483 84.789861,0.45579759 92.186058,16.316993 Z m -0.96193,2.6428859 -15.861194,7.396197 -7.396197,-15.8611959 -7.249687,3.3805849 7.396197,15.861195 -15.861196,7.396197 3.380585,7.249688 15.861196,-7.396197 7.396196,15.861196 7.24969,-3.380585 -7.396199,-15.861196 15.861199,-7.396197 z" id="path_stroke"/>
</svg>
