<?xml version="1.0" encoding="UTF-8" standalone="no"?>
<svg xmlns="http://www.w3.org/2000/svg" xmlns:svg="http://www.w3.org/2000/svg" xmlns:rdf="http://www.w3.org/1999/02/22-rdf-syntax-ns#" xmlns:cc="http://creativecommons.org/ns#" xmlns:dc="http://purl.org/dc/elements/1.1/" version="1.0" width="61.188" height="172.21899" id="svg2">
  <title id="title2986">Q9: Topmark, cylinder</title>
  <metadata id="metadata11">
    <rdf:RDF>
      <cc:Work rdf:about="">
        <dc:format>image/svg+xml</dc:format>
        <dc:type rdf:resource="http://purl.org/dc/dcmitype/StillImage"/>
        <dc:title>Q9: Topmark, cylinder</dc:title>
        <cc:license rdf:resource="http://creativecommons.org/publicdomain/zero/1.0/"/>
      </cc:Work>
      <cc:Work rdf:about="">
        <dc:format>image/svg+xml</dc:format>
        <dc:type rdf:resource="http://purl.org/dc/dcmitype/StillImage"/>
      </cc:Work>
      <cc:License rdf:about="http://creativecommons.org/publicdomain/zero/1.0/">
        <cc:permits rdf:resource="http://creativecommons.org/ns#Reproduction"/>
        <cc:permits rdf:resource="http://creativecommons.org/ns#Distribution"/>
        <cc:permits rdf:resource="http://creativecommons.org/ns#DerivativeWorks"/>
      </cc:License>
    </rdf:RDF>
  </metadata>
  <defs id="defs9"/>
  <path style="fill:#ffffff;fill-opacity:0;stroke:none;stroke-width:1px;stroke-linecap:butt;stroke-linejoin:miter;stroke-opacity:1" d="M 53.833643,68.974 54.354301,38.4637 31.132941,38.359568 30.612283,68.974 Z" id="path_fill_v12"/>
  <path style="fill:#ffffff;fill-opacity:0;stroke:none;stroke-width:1px;stroke-linecap:butt;stroke-linejoin:miter;stroke-opacity:1" d="M 45.288722,68.974 45.80938,38.4637 31.132658,38.359568 30.612,68.974 Z" id="path_fill_v8"/>
  <path style="fill:#ffffff;fill-opacity:0;stroke:none;stroke-width:0.707107px;stroke-linecap:butt;stroke-linejoin:miter;stroke-opacity:1" d="M 42.222671,68.974 42.483,38.4637 30.872329,38.359568 30.612,68.974 Z" id="path_fill_v6"/>
  <path style="fill:#ffffff;fill-opacity:0;stroke:none;stroke-width:1px;stroke-linecap:butt;stroke-linejoin:miter;stroke-opacity:1" d="M 39.278722,68.974 39.79938,38.4637 31.132658,38.359568 30.612,68.974 Z" id="path_fill_v4"/>
  <path style="fill:#ffffff" d="M 53.833643,68.974 54.354301,38.4637 31.132941,38.359568 30.612283,68.974 Z" id="path_fill_h12"/>
  <path style="fill:#0000ff" d="M 53.833643,57.594 54.354301,38.4637 31.132941,38.359568 30.612283,57.594 Z" id="path_fill_h8"/>
  <path style="fill:#ffffff;fill-opacity:0;stroke:none;stroke-width:0.707101px;stroke-linecap:butt;stroke-linejoin:miter;stroke-opacity:1" d="M 53.833643,53.666655 54.354301,38.411633 31.132941,38.359573 30.612283,53.66666 Z" id="path_fill_h6"/>
  <path style="fill:#d40000" d="M 53.833643,49.094 54.354301,38.4637 31.132941,38.359568 30.612283,49.094 Z" id="path_fill_h4"/>
  <path d="m 28.09425,36 v 50.15625 h 4.25 V 71.0625 H 56.438 V 36 Z m 23.34375,4.53125 0.0625,25.5 -18.28125,0.0625 0.1875,-25.5 z" id="path_stroke"/>
</svg>
