<?xml version="1.0" encoding="UTF-8" standalone="no"?>
<svg
   version="1.0"
   width="72.3125"
   height="86.1875"
   id="svg2"
   xmlns="http://www.w3.org/2000/svg"
   xmlns:svg="http://www.w3.org/2000/svg"
   xmlns:rdf="http://www.w3.org/1999/02/22-rdf-syntax-ns#"
   xmlns:cc="http://creativecommons.org/ns#"
   xmlns:dc="http://purl.org/dc/elements/1.1/">
  <metadata
     id="metadata3562">
    <rdf:RDF>
      <cc:Work
         rdf:about="">
        <dc:format>image/svg+xml</dc:format>
        <dc:type
           rdf:resource="http://purl.org/dc/dcmitype/StillImage" />
        <cc:license
           rdf:resource="http://creativecommons.org/licenses/publicdomain/" />
        <dc:title />
      </cc:Work>
      <cc:Work
         rdf:about="">
        <dc:format>image/svg+xml</dc:format>
        <dc:type
           rdf:resource="http://purl.org/dc/dcmitype/StillImage" />
      </cc:Work>
      <cc:License
         rdf:about="http://creativecommons.org/licenses/publicdomain/">
        <cc:permits
           rdf:resource="http://creativecommons.org/ns#Reproduction" />
        <cc:permits
           rdf:resource="http://creativecommons.org/ns#Distribution" />
        <cc:permits
           rdf:resource="http://creativecommons.org/ns#DerivativeWorks" />
      </cc:License>
    </rdf:RDF>
  </metadata>
  <defs
     id="defs4" />
  <path
     d="M 17.390625,4.8261719 12.46875,73.142578 h 13.332031 l 0.408203,-1.753906 c 1.05315,-4.526479 5.076737,-7.902336 9.947266,-7.902344 4.873558,0 8.895765,3.373577 9.947266,7.902344 l 0.408203,1.753906 H 59.84375 L 54.921875,4.8261719 Z"
     style="fill:#00d400"
     id="path_fill_h12" />
  <path
     id="path_fill_h9"
     style="fill:#ffffff;fill-opacity:0;stroke-width:1.69113;stroke-miterlimit:4.1"
     d="M 17.390625 4.8261719 L 13.699219 56.0625 L 58.613281 56.0625 L 54.921875 4.8261719 L 17.390625 4.8261719 z " />
  <path
     id="path_fill_h8"
     style="fill:#ffffff;fill-opacity:0;stroke-width:1.59441;stroke-miterlimit:4.1"
     d="M 17.390625 4.8261719 L 14.109375 50.371094 L 58.203125 50.371094 L 54.921875 4.8261719 L 17.390625 4.8261719 z " />
  <path
     id="path_fill_h6"
     style="fill:#ffffff"
     d="M 17.390625 4.8261719 L 14.929688 38.984375 L 57.382812 38.984375 L 54.921875 4.8261719 L 17.390625 4.8261719 z " />
  <path
     id="path_fill_h4"
     style="fill:#ffffff;fill-opacity:0;stroke-width:1.12742;stroke-miterlimit:4.1"
     d="M 17.390625 4.8261719 L 15.75 27.597656 L 56.5625 27.597656 L 54.921875 4.8261719 L 17.390625 4.8261719 z " />
  <path
     id="path_fill_h3"
     style="fill:#ffffff;fill-opacity:0;stroke-width:0.976375;stroke-miterlimit:4.1"
     d="M 17.390625 4.8261719 L 16.160156 21.904297 L 56.152344 21.904297 L 54.921875 4.8261719 L 17.390625 4.8261719 z " />
  <path
     d="m 59.53125,0 4.625,70.875 h 8.15625 v 5.65625 h -24 C 47.02518,82.0642 42.07923,86.18749 36.15625,86.1875 30.2313,86.1875 25.2853,82.06698 24,76.53125 H 0 V 70.875 H 8.15625 L 13.125,0 Z M 52.8125,7.09375 H 19.5 L 14.90625,70.875 H 24 c 1.2853,-5.53573 6.2313,-9.65625 12.15625,-9.65625 5.92298,1e-5 10.86893,4.1233 12.15625,9.65625 h 9.09375 z M 36.15625,66.1875 c -4.14,0 -7.5,3.36 -7.5,7.5 0,4.14 3.36,7.5 7.5,7.5 4.14,0 7.5,-3.36 7.5,-7.5 0,-4.14 -3.36,-7.5 -7.5,-7.5 z"
     id="path_stroke"
     style="display:inline;fill:#000407;fill-opacity:1;fill-rule:evenodd;stroke:none" />
</svg>
