<?xml version="1.0" encoding="UTF-8" standalone="no"?>
<svg
   version="1.0"
   width="85.841003"
   height="115.609"
   id="svg2"
   xml:space="preserve"
   xmlns="http://www.w3.org/2000/svg"
   xmlns:svg="http://www.w3.org/2000/svg"
   xmlns:rdf="http://www.w3.org/1999/02/22-rdf-syntax-ns#"
   xmlns:cc="http://creativecommons.org/ns#"
   xmlns:dc="http://purl.org/dc/elements/1.1/"><title
     id="title2985">Q24: Spar buoy</title><metadata
     id="metadata7"><rdf:RDF><cc:Work
         rdf:about=""><dc:format>image/svg+xml</dc:format><dc:type
           rdf:resource="http://purl.org/dc/dcmitype/StillImage" /><dc:title>Q24: Spar buoy</dc:title><cc:license
           rdf:resource="http://creativecommons.org/publicdomain/zero/1.0/" /></cc:Work><cc:Work
         rdf:about=""><dc:format>image/svg+xml</dc:format><dc:type
           rdf:resource="http://purl.org/dc/dcmitype/StillImage" /></cc:Work><cc:License
         rdf:about="http://creativecommons.org/publicdomain/zero/1.0/"><cc:permits
           rdf:resource="http://creativecommons.org/ns#Reproduction" /><cc:permits
           rdf:resource="http://creativecommons.org/ns#Distribution" /><cc:permits
           rdf:resource="http://creativecommons.org/ns#DerivativeWorks" /></cc:License></rdf:RDF></metadata><defs
     id="defs4" /><path
     style="baseline-shift:baseline;display:inline;overflow:visible;opacity:1;vector-effect:none;fill:#ffffff;fill-opacity:0;stroke-miterlimit:4.1;enable-background:accumulate;stop-color:#000000;stop-opacity:1"
     d="M 74.049988,1.3730468 40.780456,92.78125 51.198415,96.574247 84.467947,5.1660441 Z"
     id="path_fill_v12" /><path
     style="baseline-shift:baseline;display:inline;overflow:visible;opacity:1;vector-effect:none;fill:#ffffff;fill-opacity:0;stroke-width:0.707066;stroke-miterlimit:4.1;enable-background:accumulate;stop-color:#000000;stop-opacity:1"
     d="M 74.049728,1.3733056 40.780049,92.781455 45.988242,94.678253 79.257922,3.2701034 Z"
     id="path_fill_v6" /><path
     style="fill:#000407"
     d="M 74.049988,1.3730468 40.780456,92.78125 51.198415,96.574247 84.467947,5.1660441 Z"
     id="path_fill_h12" /><path
     style="baseline-shift:baseline;display:inline;overflow:visible;opacity:1;vector-effect:none;fill:#ffffff;fill-opacity:0;stroke-width:0.866027;stroke-miterlimit:4.1;enable-background:accumulate;stop-color:#000000;stop-opacity:1"
     d="M 74.049728,1.3733056 49.097541,69.929792 59.515593,73.722531 84.467781,5.1660444 Z"
     id="path_fill_h9" /><path
     style="fill:#ffd400"
     d="M 74.049728,1.3733056 51.870039,62.312417 62.288123,66.10507 84.467812,5.1659582 Z"
     id="path_fill_h8" /><path
     style="baseline-shift:baseline;display:inline;overflow:visible;opacity:1;vector-effect:none;fill:#ffffff;fill-opacity:0;stroke-width:0.707108;stroke-miterlimit:4.1;enable-background:accumulate;stop-color:#000000;stop-opacity:1"
     d="M 74.049728,1.3733056 57.415035,47.077666 67.833181,50.870146 84.467875,5.165786 Z"
     id="path_fill_h6" /><path
     style="fill:#000407"
     d="M 74.049728,1.3733056 62.960031,31.842915 73.37824,35.635224 84.467937,5.1656138 Z"
     id="path_fill_h4" /><path
     style="baseline-shift:baseline;display:inline;overflow:visible;opacity:1;vector-effect:none;fill:#ffffff;fill-opacity:0;stroke-width:0.500001;stroke-miterlimit:4.1;enable-background:accumulate;stop-color:#000000;stop-opacity:1"
     d="m 74.049728,1.3733056 -8.317199,22.8522334 10.41824,3.792222 8.3172,-22.8522334 z"
     id="path_fill_h3" /><path
     id="path_stroke"
     style="baseline-shift:baseline;display:inline;overflow:visible;opacity:1;vector-effect:none;stroke-miterlimit:4.1;enable-background:accumulate;stop-color:#000000;stop-opacity:1"
     d="M 73.409363,0 40.319519,90.916016 c -4.731047,1.001247 -8.464801,4.680311 -9.55664,9.382814 h -8.5625 v 5.65625 h 8.5625 c 1.287319,5.53295 6.233271,9.65428 12.156251,9.65429 5.924949,1e-5 10.870949,-4.11856 12.156249,-9.65429 l 8.313,-0.0312 -5e-4,-5.65625 -8.3125,0.0312 C 54.65674,98.499504 53.851505,96.848975 52.75116,95.441407 L 85.841003,4.525391 Z m 1.28125,2.7460942 8.404308,3.0605143 -31.992187,87.8984375 c -2.189824,-1.906338 -5.049588,-3.060542 -8.183593,-3.060547 -0.07409,0 -0.148879,6.71e-4 -0.222658,0.002 z M 42.919128,95.611328 c 4.140001,0 7.500001,3.36 7.500001,7.500002 -10e-7,4.14 -3.36,7.50195 -7.500001,7.50195 -4.139999,0 -7.499999,-3.36195 -7.499999,-7.50195 -10e-7,-4.140002 3.36,-7.500002 7.499999,-7.500002 z" /></svg>
