<?xml version="1.0" encoding="UTF-8" standalone="no"?>
<svg xmlns="http://www.w3.org/2000/svg" xmlns:svg="http://www.w3.org/2000/svg" xmlns:rdf="http://www.w3.org/1999/02/22-rdf-syntax-ns#" xmlns:cc="http://creativecommons.org/ns#" xmlns:dc="http://purl.org/dc/elements/1.1/" version="1.0" width="61.188" height="172.21899" id="svg2">
  <title id="title2983">Q9: Topmark, X</title>
  <metadata id="metadata10">
    <rdf:RDF>
      <cc:Work rdf:about="">
        <dc:format>image/svg+xml</dc:format>
        <dc:type rdf:resource="http://purl.org/dc/dcmitype/StillImage"/>
        <dc:title>Q9: Topmark, X</dc:title>
        <cc:license rdf:resource="http://creativecommons.org/publicdomain/zero/1.0/"/>
      </cc:Work>
      <cc:Work rdf:about="">
        <dc:format>image/svg+xml</dc:format>
        <dc:type rdf:resource="http://purl.org/dc/dcmitype/StillImage"/>
      </cc:Work>
      <cc:License rdf:about="http://creativecommons.org/publicdomain/zero/1.0/">
        <cc:permits rdf:resource="http://creativecommons.org/ns#Reproduction"/>
        <cc:permits rdf:resource="http://creativecommons.org/ns#Distribution"/>
        <cc:permits rdf:resource="http://creativecommons.org/ns#DerivativeWorks"/>
      </cc:License>
    </rdf:RDF>
  </metadata>
  <defs id="defs8"/>
  <path style="fill:#00d400" d="m 42.138073,70.285269 7.184241,-7.300116 -12.514485,-12.16686 12.282735,-12.282734 -7.068366,-7.068367 -12.16686,12.16686 -12.514484,-12.282734 -7.068367,7.184241 12.39861,12.398609 -12.39861,12.39861 6.952492,6.952491 12.398609,-12.282734 z" id="path_fill_h12"/>
  <path d="m 42.25,30 8.46875,8.46875 -12.375,12.375 12.375,12.375 -8.46875,8.5 -9.875,-9.875 V 85.8125 H 27.4375 V 61.78125 L 17.5,71.71875 9,63.21875 21.375,50.84375 9,38.46875 17.5,30 29.875,42.375 Z m 0,2.8125 -12.375,12.375 -12.375,-12.375 -5.65625,5.65625 12.375,12.375 -12.375,12.375 L 17.5,68.875 29.875,56.5 42.25,68.875 l 5.65625,-5.65625 -12.375,-12.375 12.375,-12.375 z" id="path_stroke"/>
</svg>
