<?xml version="1.0" encoding="UTF-8" standalone="no"?>
<svg
   version="1.0"
   width="33.657959"
   height="83"
   id="svg2"
   xmlns="http://www.w3.org/2000/svg"
   xmlns:svg="http://www.w3.org/2000/svg"
   xmlns:rdf="http://www.w3.org/1999/02/22-rdf-syntax-ns#"
   xmlns:cc="http://creativecommons.org/ns#"
   xmlns:dc="http://purl.org/dc/elements/1.1/">
  <title
     id="title2984">Q9: Topmark, south mark</title>
  <metadata
     id="metadata9">
    <rdf:RDF>
      <cc:Work
         rdf:about="">
        <dc:format>image/svg+xml</dc:format>
        <dc:type
           rdf:resource="http://purl.org/dc/dcmitype/StillImage" />
        <dc:title>Q9: Topmark, south mark</dc:title>
        <cc:license
           rdf:resource="http://creativecommons.org/publicdomain/zero/1.0/" />
      </cc:Work>
      <cc:License
         rdf:about="http://creativecommons.org/publicdomain/zero/1.0/">
        <cc:permits
           rdf:resource="http://creativecommons.org/ns#Reproduction" />
        <cc:permits
           rdf:resource="http://creativecommons.org/ns#Distribution" />
        <cc:permits
           rdf:resource="http://creativecommons.org/ns#DerivativeWorks" />
      </cc:License>
    </rdf:RDF>
  </metadata>
  <defs
     id="defs7" />
  <path
     d="M 1.5410156,0.86523438 16.845703,32.611328 32.150391,0.86523438 Z M 1.5253906,33.365234 16.845703,64.572266 32.166016,33.365234 Z"
     id="path_fill_h12"
     style="display:none;fill:#ffffff;fill-opacity:0" />
  <path
     d="M 0,0 C 0.1936014,0.239989 10.506327,21.788838 15.75,32.5 H 0.03125 c 0.1066724,0.03795 14.985878,30.454414 16.125,32.78125 h -1.5625 V 83 h 4.25 V 65.28125 h -1.4375 C 18.545357,62.952819 33.448489,32.469199 33.625,32.5 33.415254,32.46897 17.78125,32.5 17.78125,32.5 23.222251,21.869372 33.8125,0.288261 33.65625,0 Z m 3.3125,2 h 27 l -13.5,28 z m 0,32.5 h 27 l -13.5,27.5 z"
     id="path_stroke"
     style="display:inline;stroke:#000000;stroke-opacity:1" />
</svg>
