<?xml version="1.0" encoding="UTF-8" standalone="no"?>
<svg xmlns="http://www.w3.org/2000/svg" xmlns:svg="http://www.w3.org/2000/svg" xmlns:rdf="http://www.w3.org/1999/02/22-rdf-syntax-ns#" xmlns:cc="http://creativecommons.org/ns#" xmlns:dc="http://purl.org/dc/elements/1.1/" version="1.0" width="61.188" height="172.21899" id="svg2">
  <title id="title2982">Q9: Topmark, north mark</title>
  <metadata id="metadata9">
    <rdf:RDF>
      <cc:Work rdf:about="">
        <dc:format>image/svg+xml</dc:format>
        <dc:type rdf:resource="http://purl.org/dc/dcmitype/StillImage"/>
        <dc:title>Q9: Topmark, north mark</dc:title>
        <cc:license rdf:resource="http://creativecommons.org/licenses/publicdomain/"/>
      </cc:Work>
      <cc:License rdf:about="http://creativecommons.org/licenses/publicdomain/">
        <cc:permits rdf:resource="http://creativecommons.org/ns#Reproduction"/>
        <cc:permits rdf:resource="http://creativecommons.org/ns#Distribution"/>
        <cc:permits rdf:resource="http://creativecommons.org/ns#DerivativeWorks"/>
      </cc:License>
    </rdf:RDF>
  </metadata>
  <defs id="defs7"/>
  <path d="M 30.09375,3.6640625 14.257813,35.322266 h 31.671874 z m 0,32.3007815 -15.833984,31.669922 h 31.667968 z" id="path_fill_h12" style="display:inline;fill:#ffffff;fill-opacity:0"/>
  <path d="m 30.09375,2 c 0,0.125 -11.104401,21.516274 -17,34.1875 5.25,0 10.71875,0.03125 15.96875,0.03125 C 23.59058,46.865775 18.537314,57.886815 13,68.5 H 27.9375 V 86 h 4.25 V 68.5 H 47.21875 C 41.839061,57.804819 36.506102,46.929111 31.15625,36.21875 h 16.0625 C 41.152771,22.755281 30.09375,2.125 30.09375,2 Z m 0,4.2 14,27.9875 h -28 z m 0,32.3 14,28 h -28 z" id="path_stroke"/>
</svg>
