<?xml version="1.0" encoding="UTF-8" standalone="no"?>
<svg
   version="1.0"
   width="41.71875"
   height="55.8125"
   id="svg2"
   xmlns="http://www.w3.org/2000/svg"
   xmlns:svg="http://www.w3.org/2000/svg"
   xmlns:rdf="http://www.w3.org/1999/02/22-rdf-syntax-ns#"
   xmlns:cc="http://creativecommons.org/ns#"
   xmlns:dc="http://purl.org/dc/elements/1.1/">
  <title
     id="title2983">Q9: Topmark, X</title>
  <metadata
     id="metadata10">
    <rdf:RDF>
      <cc:Work
         rdf:about="">
        <dc:format>image/svg+xml</dc:format>
        <dc:type
           rdf:resource="http://purl.org/dc/dcmitype/StillImage" />
        <dc:title>Q9: Topmark, X</dc:title>
        <cc:license
           rdf:resource="http://creativecommons.org/publicdomain/zero/1.0/" />
      </cc:Work>
      <cc:Work
         rdf:about="">
        <dc:format>image/svg+xml</dc:format>
        <dc:type
           rdf:resource="http://purl.org/dc/dcmitype/StillImage" />
      </cc:Work>
      <cc:License
         rdf:about="http://creativecommons.org/publicdomain/zero/1.0/">
        <cc:permits
           rdf:resource="http://creativecommons.org/ns#Reproduction" />
        <cc:permits
           rdf:resource="http://creativecommons.org/ns#Distribution" />
        <cc:permits
           rdf:resource="http://creativecommons.org/ns#DerivativeWorks" />
      </cc:License>
    </rdf:RDF>
  </metadata>
  <defs
     id="defs8" />
  <path
     style="fill:#ffd400"
     d="M 33.138073,40.285269 40.322314,32.985153 27.807829,20.818293 40.090564,8.535559 33.022198,1.467192 20.855338,13.634052 8.340854,1.351318 1.272487,8.535559 13.671097,20.934168 1.272487,33.332778 8.224979,40.285269 20.623588,28.002535 Z"
     id="path_fill_h12" />
  <path
     d="m 33.25,0 8.46875,8.46875 -12.375,12.375 12.375,12.375 -8.46875,8.5 -9.875,-9.875 V 55.8125 H 18.4375 V 31.78125 L 8.5,41.71875 0,33.21875 12.375,20.84375 0,8.46875 8.5,0 20.875,12.375 Z m 0,2.8125 L 20.875,15.1875 8.5,2.8125 2.84375,8.46875 l 12.375,12.375 -12.375,12.375 L 8.5,38.875 20.875,26.5 33.25,38.875 l 5.65625,-5.65625 -12.375,-12.375 12.375,-12.375 z"
     id="path_stroke" />
</svg>
