<?xml version="1.0" encoding="UTF-8" standalone="no"?>
<svg
   version="1.0"
   width="30"
   height="30"
   id="svg2"
   xmlns="http://www.w3.org/2000/svg"
   xmlns:svg="http://www.w3.org/2000/svg"
   xmlns:rdf="http://www.w3.org/1999/02/22-rdf-syntax-ns#"
   xmlns:cc="http://creativecommons.org/ns#"
   xmlns:dc="http://purl.org/dc/elements/1.1/">
  <title
     id="title2983">Q9: Topmark, square</title>
  <metadata
     id="metadata10">
    <rdf:RDF>
      <cc:Work
         rdf:about="">
        <dc:format>image/svg+xml</dc:format>
        <dc:type
           rdf:resource="http://purl.org/dc/dcmitype/StillImage" />
        <dc:title>Q9: Topmark, square</dc:title>
        <cc:license
           rdf:resource="http://creativecommons.org/publicdomain/zero/1.0/" />
      </cc:Work>
      <cc:License
         rdf:about="http://creativecommons.org/publicdomain/zero/1.0/">
        <cc:permits
           rdf:resource="http://creativecommons.org/ns#Reproduction" />
        <cc:permits
           rdf:resource="http://creativecommons.org/ns#Distribution" />
        <cc:permits
           rdf:resource="http://creativecommons.org/ns#DerivativeWorks" />
      </cc:License>
    </rdf:RDF>
  </metadata>
  <defs
     id="defs8" />
  <path
     d="M 1.0097656,1.0097656 V 28.990234 H 28.990234 V 1.0097656 Z"
     id="path_fill_h12"
     style="fill:#ffffff" />
  <path
     d="M 1.0097656,1.0097656 V 21.5 H 28.990234 V 1.0097656 Z"
     id="path_fill_h8"
     style="display:inline;fill:#ffffff;fill-opacity:0" />
  <path
     d="M 1.0097656,1.0097656 V 14.999766 H 28.990234 V 1.0097656 Z"
     id="path_fill_h6"
     style="display:inline;fill:#ffffff;fill-opacity:0;stroke-width:0.707101" />
  <path
     d="M 1.0097656,1.0097656 V 8.5 H 28.990234 V 1.0097656 Z"
     id="path_fill_h4"
     style="display:inline;fill:#ffffff;fill-opacity:0" />
  <path
     d="M 1,1 V 29 H 29 V 1 Z"
     id="path_fill_v12"
     style="display:inline;fill:#ffffff;fill-opacity:0;stroke-width:1.0007" />
  <path
     d="M 1,1 V 29 H 21.5 V 1 Z"
     id="path_fill_v8"
     style="display:inline;fill:#ffffff;fill-opacity:0;stroke-width:1.0007" />
  <path
     d="M 1,1 V 29 H 16 V 1 Z"
     id="path_fill_v6"
     style="display:inline;fill:#ffffff;fill-opacity:0;stroke-width:0.732437" />
  <path
     d="M 1,1 V 29 H 8.5 V 1 Z"
     id="path_fill_v4"
     style="display:inline;fill:#ffffff;fill-opacity:0;stroke-width:0.551358" />
  <path
     d="M 1.0097656,1.0097656 V 28.990234 H 28.990234 V 1.0097656 Z"
     id="path_fill_b12"
     style="display:inline;fill:#ffffff;fill-opacity:0" />
  <path
     d="M 1.0097656,1.0097656 V 28.990234 H 28.990234 V 1.0097656 Z M 19,11 v 8 h -8 v -8 z"
     id="path_fill_b9"
     style="display:inline;fill:#ffffff;fill-opacity:0" />
  <path
     d="M 1.0097656,1.0097656 V 28.990234 H 28.990234 V 1.0097656 Z M 22,8 V 22 H 8 V 8 Z"
     id="path_fill_b6"
     style="display:inline;fill:#ffffff;fill-opacity:0" />
  <path
     d="M 1.0097656,1.0097656 V 28.990234 H 28.990234 V 1.0097656 Z M 25,5 V 25 H 5 V 5 Z"
     id="path_fill_b3"
     style="display:inline;fill:#ffffff;fill-opacity:0" />
  <path
     d="M 28.990234,1.0097656 V 28.990234 H 1.0097656 V 1.0097656 Z M 4,4 V 26 H 26 V 4 Z"
     id="path_fill_b2"
     style="display:inline;fill:#ffffff;fill-opacity:0" />
  <path
     d="M 0,0 V 30 H 30 V 0 Z M 2,2 H 28 V 28 H 2 Z"
     id="path_stroke"
     style="display:inline" />
</svg>
