<?xml version="1.0" encoding="UTF-8" standalone="no"?>
<svg
   version="1.0"
   width="34.21875"
   height="84"
   id="svg2"
   xmlns="http://www.w3.org/2000/svg"
   xmlns:svg="http://www.w3.org/2000/svg"
   xmlns:rdf="http://www.w3.org/1999/02/22-rdf-syntax-ns#"
   xmlns:cc="http://creativecommons.org/ns#"
   xmlns:dc="http://purl.org/dc/elements/1.1/">
  <title
     id="title2982">Q9: Topmark, north mark</title>
  <metadata
     id="metadata9">
    <rdf:RDF>
      <cc:Work
         rdf:about="">
        <dc:format>image/svg+xml</dc:format>
        <dc:type
           rdf:resource="http://purl.org/dc/dcmitype/StillImage" />
        <dc:title>Q9: Topmark, north mark</dc:title>
        <cc:license
           rdf:resource="http://creativecommons.org/licenses/publicdomain/" />
      </cc:Work>
      <cc:License
         rdf:about="http://creativecommons.org/licenses/publicdomain/">
        <cc:permits
           rdf:resource="http://creativecommons.org/ns#Reproduction" />
        <cc:permits
           rdf:resource="http://creativecommons.org/ns#Distribution" />
        <cc:permits
           rdf:resource="http://creativecommons.org/ns#DerivativeWorks" />
      </cc:License>
    </rdf:RDF>
  </metadata>
  <defs
     id="defs7" />
  <path
     d="M 17.09375,1.6640625 1.2578125,33.322266 H 32.929687 Z m 0,32.3007815 L 1.2597656,65.634766 H 32.927734 Z"
     id="path_fill_h12"
     style="display:inline;fill:#ffffff;fill-opacity:0" />
  <path
     d="M 17.09375,0 C 17.09375,0.125 5.9893495,21.516274 0.09375,34.1875 C 5.34375,34.1875 10.8125,34.21875 16.0625,34.21875 C 10.59058,44.865775 5.5373139,55.886815 0,66.5 L 14.9375,66.5 L 14.9375,84 L 19.1875,84 L 19.1875,66.5 L 34.21875,66.5 C 28.839061,55.804819 23.506102,44.929111 18.15625,34.21875 L 34.21875,34.21875 C 28.152771,20.755281 17.09375,0.125 17.09375,0 z M 17.09375,4.2 L 31.09375,32.1875 L 3.09375,32.1875 L 17.09375,4.2 z M 17.09375,36.5 L 31.09375,64.5 L 3.09375,64.5 L 17.09375,36.5 z "
     id="path_stroke" />
</svg>
