<?xml version="1.0" encoding="UTF-8" standalone="no"?>
<svg xmlns="http://www.w3.org/2000/svg" xmlns:svg="http://www.w3.org/2000/svg" xmlns:rdf="http://www.w3.org/1999/02/22-rdf-syntax-ns#" xmlns:cc="http://creativecommons.org/ns#" xmlns:dc="http://purl.org/dc/elements/1.1/" version="1.0" width="61.188" height="172.21899" id="svg2">
  <title id="title2984">Q9: Topmark, sphere</title>
  <metadata id="metadata10">
    <rdf:RDF>
      <cc:Work rdf:about="">
        <dc:format>image/svg+xml</dc:format>
        <dc:type rdf:resource="http://purl.org/dc/dcmitype/StillImage"/>
        <dc:title>Q9: Topmark, sphere</dc:title>
        <cc:license rdf:resource="http://creativecommons.org/publicdomain/zero/1.0/"/>
      </cc:Work>
      <cc:Work rdf:about="">
        <dc:format>image/svg+xml</dc:format>
        <dc:type rdf:resource="http://purl.org/dc/dcmitype/StillImage"/>
      </cc:Work>
      <cc:License rdf:about="http://creativecommons.org/publicdomain/zero/1.0/">
        <cc:permits rdf:resource="http://creativecommons.org/ns#Reproduction"/>
        <cc:permits rdf:resource="http://creativecommons.org/ns#Distribution"/>
        <cc:permits rdf:resource="http://creativecommons.org/ns#DerivativeWorks"/>
      </cc:License>
    </rdf:RDF>
  </metadata>
  <defs id="defs8"/>
  <path d="M 30,40.820312 19.257812,45.257812 14.820313,56 19.257812,66.742187 30,71.179687 40.742187,66.742187 45.179687,56 40.742187,45.257812 Z" id="path_fill_h12" style="fill:#ffd400"/>
  <path d="M 30,40.820312 19.257812,45.257812 14.820313,56 h 30.359374 l -4.4375,-10.742188 z" id="path_fill_h6" style="display:none;fill:#ffffff;fill-opacity:0"/>
  <path d="M 30,40.820312 19.257812,45.257812 14.82,56 v 4 H 45.18 V 56 L 40.742187,45.257812 Z" id="path_fill_h8" style="display:inline;fill:#ffffff;fill-opacity:0"/>
  <path d="M 30,40.820312 19.257812,45.257812 14.82,52 h 30.359687 l -4.4375,-6.742188 z" id="path_fill_h4" style="display:inline;fill:#ffffff;fill-opacity:0"/>
  <path d="m 30,39 c -9.3567,0 -17,7.6433 -17,17 0,8.652489 6.554572,15.842141 14.9375,16.875 v 13.1875 h 4.25 V 72.875 C 40.511578,71.787617 47,64.610342 47,56 47,46.6433 39.3567,39 30,39 Z m 0,5 c 6.6513,0 12,5.3487 12,12 0,6.6513 -5.3487,12 -12,12 -6.6513,0 -12,-5.3487 -12,-12 0,-6.6513 5.3487,-12 12,-12 z" id="path_stroke" style="display:inline"/>
</svg>
