<?xml version="1.0" encoding="UTF-8" standalone="no"?>
<svg xmlns="http://www.w3.org/2000/svg" xmlns:svg="http://www.w3.org/2000/svg" xmlns:rdf="http://www.w3.org/1999/02/22-rdf-syntax-ns#" xmlns:cc="http://creativecommons.org/ns#" xmlns:dc="http://purl.org/dc/elements/1.1/" version="1.0" width="61.188" height="172.21899" id="svg2">
  <title id="title2986">Q9: Topmark, cylinder</title>
  <metadata id="metadata11">
    <rdf:RDF>
      <cc:Work rdf:about="">
        <dc:format>image/svg+xml</dc:format>
        <dc:type rdf:resource="http://purl.org/dc/dcmitype/StillImage"/>
        <dc:title>Q9: Topmark, cylinder</dc:title>
        <cc:license rdf:resource="http://creativecommons.org/publicdomain/zero/1.0/"/>
      </cc:Work>
      <cc:Work rdf:about="">
        <dc:format>image/svg+xml</dc:format>
        <dc:type rdf:resource="http://purl.org/dc/dcmitype/StillImage"/>
      </cc:Work>
      <cc:License rdf:about="http://creativecommons.org/publicdomain/zero/1.0/">
        <cc:permits rdf:resource="http://creativecommons.org/ns#Reproduction"/>
        <cc:permits rdf:resource="http://creativecommons.org/ns#Distribution"/>
        <cc:permits rdf:resource="http://creativecommons.org/ns#DerivativeWorks"/>
      </cc:License>
    </rdf:RDF>
  </metadata>
  <defs id="defs9"/>
  <path style="fill:#ffffff;fill-opacity:0;stroke:none;stroke-width:1px;stroke-linecap:butt;stroke-linejoin:miter;stroke-opacity:1" d="M 41.739393,68.974 42.260051,38.4637 19.038691,38.359568 18.518033,68.974 Z" id="path_fill_v12"/>
  <path style="fill:#ffffff;fill-opacity:0;stroke:none;stroke-width:1px;stroke-linecap:butt;stroke-linejoin:miter;stroke-opacity:1" d="M 33.194722,68.974 33.71538,38.4637 19.038658,38.359568 18.518,68.974 Z" id="path_fill_v8"/>
  <path style="fill:#ffffff;fill-opacity:0;stroke:none;stroke-width:0.707107px;stroke-linecap:butt;stroke-linejoin:miter;stroke-opacity:1" d="M 30.128671,68.974 30.389,38.4637 18.778329,38.359568 18.518,68.974 Z" id="path_fill_v6"/>
  <path style="fill:#ffffff;fill-opacity:0;stroke:none;stroke-width:1px;stroke-linecap:butt;stroke-linejoin:miter;stroke-opacity:1" d="M 27.184722,68.974 27.70538,38.4637 19.038658,38.359568 18.518,68.974 Z" id="path_fill_v4"/>
  <path style="fill:#d40000" d="M 41.739393,68.974 42.260051,38.4637 19.038691,38.359568 18.518033,68.974 Z" id="path_fill_h12"/>
  <path style="fill:#ffffff;fill-opacity:0;stroke:none;stroke-width:1px;stroke-linecap:butt;stroke-linejoin:miter;stroke-opacity:1" d="M 41.739393,57.594 42.260051,38.4637 19.038691,38.359568 18.518033,57.594 Z" id="path_fill_h8"/>
  <path style="fill:#ffffff;fill-opacity:0;stroke:none;stroke-width:0.707101px;stroke-linecap:butt;stroke-linejoin:miter;stroke-opacity:1" d="M 41.739393,53.666655 42.260051,38.411633 19.038691,38.359573 18.518033,53.66666 Z" id="path_fill_h6"/>
  <path style="fill:#ffffff;fill-opacity:0;stroke:none;stroke-width:1px;stroke-linecap:butt;stroke-linejoin:miter;stroke-opacity:1" d="M 41.739393,49.094 42.260051,38.4637 19.038691,38.359568 18.518033,49.094 Z" id="path_fill_h4"/>
  <path d="m 16,36 v 35.0625 h 12 v 15.09375 h 4.25 V 71.0625 H 44.34375 V 36 Z m 23.34375,4.53125 0.0625,25.5 -18.28125,0.0625 0.1875,-25.5 z" id="path_stroke"/>
</svg>
